<svg width="1440" height="1877" viewBox="0 0 1440 1877" fill="none" xmlns="http://www.w3.org/2000/svg">
<path fill-rule="evenodd" clip-rule="evenodd" d="M21.5 872C108.485 872 179 801.485 179 714.5C179 627.515 108.485 557 21.5 557C-65.4848 557 -136 627.515 -136 714.5C-136 801.485 -65.4848 872 21.5 872ZM21.5 823.318C81.5986 823.318 130.318 774.599 130.318 714.5C130.318 654.401 81.5986 605.682 21.5 605.682C-38.5986 605.682 -87.3182 654.401 -87.3182 714.5C-87.3182 774.599 -38.5986 823.318 21.5 823.318Z" fill="#FDAA64" fill-opacity="0.1"/>
<path fill-rule="evenodd" clip-rule="evenodd" d="M91.5 1877C178.485 1877 249 1806.48 249 1719.5C249 1632.52 178.485 1562 91.5 1562C4.51515 1562 -66 1632.52 -66 1719.5C-66 1806.48 4.51515 1877 91.5 1877ZM91.5 1828.32C151.599 1828.32 200.318 1779.6 200.318 1719.5C200.318 1659.4 151.599 1610.68 91.5 1610.68C31.4014 1610.68 -17.3182 1659.4 -17.3182 1719.5C-17.3182 1779.6 31.4014 1828.32 91.5 1828.32Z" fill="#8ED7C0" fill-opacity="0.1"/>
<path fill-rule="evenodd" clip-rule="evenodd" d="M1208.5 1607C1321.99 1607 1414 1514.99 1414 1401.5C1414 1288.01 1321.99 1196 1208.5 1196C1095.01 1196 1003 1288.01 1003 1401.5C1003 1514.99 1095.01 1607 1208.5 1607ZM1208.5 1543.48C1286.91 1543.48 1350.48 1479.91 1350.48 1401.5C1350.48 1323.09 1286.91 1259.52 1208.5 1259.52C1130.09 1259.52 1066.52 1323.09 1066.52 1401.5C1066.52 1479.91 1130.09 1543.48 1208.5 1543.48Z" fill="#F9DC41" fill-opacity="0.1"/>
<path fill-rule="evenodd" clip-rule="evenodd" d="M1361 440C1482.5 440 1581 341.503 1581 220C1581 98.4974 1482.5 0 1361 0C1239.5 0 1141 98.4974 1141 220C1141 341.503 1239.5 440 1361 440ZM1361 372C1444.95 372 1513 303.947 1513 220C1513 136.053 1444.95 68 1361 68C1277.05 68 1209 136.053 1209 220C1209 303.947 1277.05 372 1361 372Z" fill="#8ED7C0" fill-opacity="0.2"/>
</svg>
