<svg width="470" height="274" viewBox="0 0 470 274" fill="none" xmlns="http://www.w3.org/2000/svg">
<rect y="36" width="287" height="10" fill="#F9DC41"/>
<path d="M14.778 41.338H24.438V46H8.898V16.684H14.778V41.338ZM38.5073 46.378C36.2673 46.378 34.2513 45.888 32.4593 44.908C30.6673 43.9 29.2533 42.486 28.2173 40.666C27.2093 38.846 26.7053 36.746 26.7053 34.366C26.7053 31.986 27.2233 29.886 28.2593 28.066C29.3233 26.246 30.7653 24.846 32.5853 23.866C34.4053 22.858 36.4353 22.354 38.6753 22.354C40.9153 22.354 42.9453 22.858 44.7653 23.866C46.5853 24.846 48.0133 26.246 49.0493 28.066C50.1133 29.886 50.6453 31.986 50.6453 34.366C50.6453 36.746 50.0993 38.846 49.0073 40.666C47.9433 42.486 46.4873 43.9 44.6393 44.908C42.8193 45.888 40.7753 46.378 38.5073 46.378ZM38.5073 41.254C39.5713 41.254 40.5653 41.002 41.4893 40.498C42.4413 39.966 43.1973 39.182 43.7573 38.146C44.3173 37.11 44.5973 35.85 44.5973 34.366C44.5973 32.154 44.0093 30.46 42.8333 29.284C41.6853 28.08 40.2713 27.478 38.5913 27.478C36.9113 27.478 35.4973 28.08 34.3493 29.284C33.2293 30.46 32.6693 32.154 32.6693 34.366C32.6693 36.578 33.2153 38.286 34.3073 39.49C35.4273 40.666 36.8273 41.254 38.5073 41.254ZM60.8385 26.344C61.5945 25.112 62.5745 24.146 63.7785 23.446C65.0105 22.746 66.4105 22.396 67.9785 22.396V28.57H66.4245C64.5765 28.57 63.1765 29.004 62.2245 29.872C61.3005 30.74 60.8385 32.252 60.8385 34.408V46H54.9585V22.732H60.8385V26.344ZM93.569 33.862C93.569 34.702 93.513 35.458 93.401 36.13H76.391C76.531 37.81 77.119 39.126 78.155 40.078C79.191 41.03 80.465 41.506 81.977 41.506C84.161 41.506 85.715 40.568 86.639 38.692H92.981C92.309 40.932 91.021 42.78 89.117 44.236C87.213 45.664 84.875 46.378 82.103 46.378C79.863 46.378 77.847 45.888 76.055 44.908C74.291 43.9 72.905 42.486 71.897 40.666C70.917 38.846 70.427 36.746 70.427 34.366C70.427 31.958 70.917 29.844 71.897 28.024C72.877 26.204 74.249 24.804 76.013 23.824C77.777 22.844 79.807 22.354 82.103 22.354C84.315 22.354 86.289 22.83 88.025 23.782C89.789 24.734 91.147 26.092 92.099 27.856C93.079 29.592 93.569 31.594 93.569 33.862ZM87.479 32.182C87.451 30.67 86.905 29.466 85.841 28.57C84.777 27.646 83.475 27.184 81.935 27.184C80.479 27.184 79.247 27.632 78.239 28.528C77.259 29.396 76.657 30.614 76.433 32.182H87.479ZM126.757 22.396C129.613 22.396 131.909 23.278 133.645 25.042C135.409 26.778 136.291 29.214 136.291 32.35V46H130.411V33.148C130.411 31.328 129.949 29.942 129.025 28.99C128.101 28.01 126.841 27.52 125.245 27.52C123.649 27.52 122.375 28.01 121.423 28.99C120.499 29.942 120.037 31.328 120.037 33.148V46H114.157V33.148C114.157 31.328 113.695 29.942 112.771 28.99C111.847 28.01 110.587 27.52 108.991 27.52C107.367 27.52 106.079 28.01 105.127 28.99C104.203 29.942 103.741 31.328 103.741 33.148V46H97.8609V22.732H103.741V25.546C104.497 24.566 105.463 23.796 106.639 23.236C107.843 22.676 109.159 22.396 110.587 22.396C112.407 22.396 114.031 22.788 115.459 23.572C116.887 24.328 117.993 25.42 118.777 26.848C119.533 25.504 120.625 24.426 122.053 23.614C123.509 22.802 125.077 22.396 126.757 22.396ZM154.86 19.96C153.824 19.96 152.956 19.638 152.256 18.994C151.584 18.322 151.248 17.496 151.248 16.516C151.248 15.536 151.584 14.724 152.256 14.08C152.956 13.408 153.824 13.072 154.86 13.072C155.896 13.072 156.75 13.408 157.422 14.08C158.122 14.724 158.472 15.536 158.472 16.516C158.472 17.496 158.122 18.322 157.422 18.994C156.75 19.638 155.896 19.96 154.86 19.96ZM157.758 22.732V46H151.878V22.732H157.758ZM169.448 26.092C170.204 25.028 171.24 24.146 172.556 23.446C173.9 22.718 175.426 22.354 177.134 22.354C179.122 22.354 180.914 22.844 182.51 23.824C184.134 24.804 185.408 26.204 186.332 28.024C187.284 29.816 187.76 31.902 187.76 34.282C187.76 36.662 187.284 38.776 186.332 40.624C185.408 42.444 184.134 43.858 182.51 44.866C180.914 45.874 179.122 46.378 177.134 46.378C175.426 46.378 173.914 46.028 172.598 45.328C171.31 44.628 170.26 43.746 169.448 42.682V57.088H163.568V22.732H169.448V26.092ZM181.754 34.282C181.754 32.882 181.46 31.678 180.872 30.67C180.312 29.634 179.556 28.85 178.604 28.318C177.68 27.786 176.672 27.52 175.58 27.52C174.516 27.52 173.508 27.8 172.556 28.36C171.632 28.892 170.876 29.676 170.288 30.712C169.728 31.748 169.448 32.966 169.448 34.366C169.448 35.766 169.728 36.984 170.288 38.02C170.876 39.056 171.632 39.854 172.556 40.414C173.508 40.946 174.516 41.212 175.58 41.212C176.672 41.212 177.68 40.932 178.604 40.372C179.556 39.812 180.312 39.014 180.872 37.978C181.46 36.942 181.754 35.71 181.754 34.282ZM200.937 46.378C199.033 46.378 197.325 46.042 195.813 45.37C194.301 44.67 193.097 43.732 192.201 42.556C191.333 41.38 190.857 40.078 190.773 38.65H196.695C196.807 39.546 197.241 40.288 197.997 40.876C198.781 41.464 199.747 41.758 200.895 41.758C202.015 41.758 202.883 41.534 203.499 41.086C204.143 40.638 204.465 40.064 204.465 39.364C204.465 38.608 204.073 38.048 203.289 37.684C202.533 37.292 201.315 36.872 199.635 36.424C197.899 36.004 196.471 35.57 195.351 35.122C194.259 34.674 193.307 33.988 192.495 33.064C191.711 32.14 191.319 30.894 191.319 29.326C191.319 28.038 191.683 26.862 192.411 25.798C193.167 24.734 194.231 23.894 195.603 23.278C197.003 22.662 198.641 22.354 200.517 22.354C203.289 22.354 205.501 23.054 207.153 24.454C208.805 25.826 209.715 27.688 209.883 30.04H204.255C204.171 29.116 203.779 28.388 203.079 27.856C202.407 27.296 201.497 27.016 200.349 27.016C199.285 27.016 198.459 27.212 197.871 27.604C197.311 27.996 197.031 28.542 197.031 29.242C197.031 30.026 197.423 30.628 198.207 31.048C198.991 31.44 200.209 31.846 201.861 32.266C203.541 32.686 204.927 33.12 206.019 33.568C207.111 34.016 208.049 34.716 208.833 35.668C209.645 36.592 210.065 37.824 210.093 39.364C210.093 40.708 209.715 41.912 208.959 42.976C208.231 44.04 207.167 44.88 205.767 45.496C204.395 46.084 202.785 46.378 200.937 46.378ZM236.885 22.732V46H230.963V43.06C230.207 44.068 229.213 44.866 227.981 45.454C226.777 46.014 225.461 46.294 224.033 46.294C222.213 46.294 220.603 45.916 219.203 45.16C217.803 44.376 216.697 43.242 215.885 41.758C215.101 40.246 214.709 38.454 214.709 36.382V22.732H220.589V35.542C220.589 37.39 221.051 38.818 221.975 39.826C222.899 40.806 224.159 41.296 225.755 41.296C227.379 41.296 228.653 40.806 229.577 39.826C230.501 38.818 230.963 37.39 230.963 35.542V22.732H236.885ZM271.583 22.396C274.439 22.396 276.735 23.278 278.471 25.042C280.235 26.778 281.117 29.214 281.117 32.35V46H275.237V33.148C275.237 31.328 274.775 29.942 273.851 28.99C272.927 28.01 271.667 27.52 270.071 27.52C268.475 27.52 267.201 28.01 266.249 28.99C265.325 29.942 264.863 31.328 264.863 33.148V46H258.983V33.148C258.983 31.328 258.521 29.942 257.597 28.99C256.673 28.01 255.413 27.52 253.817 27.52C252.193 27.52 250.905 28.01 249.953 28.99C249.029 29.942 248.567 31.328 248.567 33.148V46H242.687V22.732H248.567V25.546C249.323 24.566 250.289 23.796 251.465 23.236C252.669 22.676 253.985 22.396 255.413 22.396C257.233 22.396 258.857 22.788 260.285 23.572C261.713 24.328 262.819 25.42 263.603 26.848C264.359 25.504 265.451 24.426 266.879 23.614C268.335 22.802 269.903 22.396 271.583 22.396ZM295.193 34.282C295.193 31.93 295.655 29.844 296.579 28.024C297.531 26.204 298.819 24.804 300.443 23.824C302.067 22.844 303.873 22.354 305.861 22.354C307.373 22.354 308.815 22.69 310.187 23.362C311.559 24.006 312.651 24.874 313.463 25.966V14.92H319.427V46H313.463V42.556C312.735 43.704 311.713 44.628 310.397 45.328C309.081 46.028 307.555 46.378 305.819 46.378C303.859 46.378 302.067 45.874 300.443 44.866C298.819 43.858 297.531 42.444 296.579 40.624C295.655 38.776 295.193 36.662 295.193 34.282ZM313.505 34.366C313.505 32.938 313.225 31.72 312.665 30.712C312.105 29.676 311.349 28.892 310.397 28.36C309.445 27.8 308.423 27.52 307.331 27.52C306.239 27.52 305.231 27.786 304.307 28.318C303.383 28.85 302.627 29.634 302.039 30.67C301.479 31.678 301.199 32.882 301.199 34.282C301.199 35.682 301.479 36.914 302.039 37.978C302.627 39.014 303.383 39.812 304.307 40.372C305.259 40.932 306.267 41.212 307.331 41.212C308.423 41.212 309.445 40.946 310.397 40.414C311.349 39.854 312.105 39.07 312.665 38.062C313.225 37.026 313.505 35.794 313.505 34.366ZM335.501 46.378C333.261 46.378 331.245 45.888 329.453 44.908C327.661 43.9 326.247 42.486 325.211 40.666C324.203 38.846 323.699 36.746 323.699 34.366C323.699 31.986 324.217 29.886 325.253 28.066C326.317 26.246 327.759 24.846 329.579 23.866C331.399 22.858 333.429 22.354 335.669 22.354C337.909 22.354 339.939 22.858 341.759 23.866C343.579 24.846 345.007 26.246 346.043 28.066C347.107 29.886 347.639 31.986 347.639 34.366C347.639 36.746 347.093 38.846 346.001 40.666C344.937 42.486 343.481 43.9 341.633 44.908C339.813 45.888 337.769 46.378 335.501 46.378ZM335.501 41.254C336.565 41.254 337.559 41.002 338.483 40.498C339.435 39.966 340.191 39.182 340.751 38.146C341.311 37.11 341.591 35.85 341.591 34.366C341.591 32.154 341.003 30.46 339.827 29.284C338.679 28.08 337.265 27.478 335.585 27.478C333.905 27.478 332.491 28.08 331.343 29.284C330.223 30.46 329.663 32.154 329.663 34.366C329.663 36.578 330.209 38.286 331.301 39.49C332.421 40.666 333.821 41.254 335.501 41.254ZM357.833 14.92V46H351.953V14.92H357.833ZM373.974 46.378C371.734 46.378 369.718 45.888 367.926 44.908C366.134 43.9 364.72 42.486 363.684 40.666C362.676 38.846 362.172 36.746 362.172 34.366C362.172 31.986 362.69 29.886 363.726 28.066C364.79 26.246 366.232 24.846 368.052 23.866C369.872 22.858 371.902 22.354 374.142 22.354C376.382 22.354 378.412 22.858 380.232 23.866C382.052 24.846 383.48 26.246 384.516 28.066C385.58 29.886 386.112 31.986 386.112 34.366C386.112 36.746 385.566 38.846 384.474 40.666C383.41 42.486 381.954 43.9 380.106 44.908C378.286 45.888 376.242 46.378 373.974 46.378ZM373.974 41.254C375.038 41.254 376.032 41.002 376.956 40.498C377.908 39.966 378.664 39.182 379.224 38.146C379.784 37.11 380.064 35.85 380.064 34.366C380.064 32.154 379.476 30.46 378.3 29.284C377.152 28.08 375.738 27.478 374.058 27.478C372.378 27.478 370.964 28.08 369.816 29.284C368.696 30.46 368.136 32.154 368.136 34.366C368.136 36.578 368.682 38.286 369.774 39.49C370.894 40.666 372.294 41.254 373.974 41.254ZM396.305 26.344C397.061 25.112 398.041 24.146 399.245 23.446C400.477 22.746 401.877 22.396 403.445 22.396V28.57H401.891C400.043 28.57 398.643 29.004 397.691 29.872C396.767 30.74 396.305 32.252 396.305 34.408V46H390.425V22.732H396.305V26.344ZM426.318 46.378C424.414 46.378 422.706 46.042 421.194 45.37C419.682 44.67 418.478 43.732 417.582 42.556C416.714 41.38 416.238 40.078 416.154 38.65H422.076C422.188 39.546 422.622 40.288 423.378 40.876C424.162 41.464 425.128 41.758 426.276 41.758C427.396 41.758 428.264 41.534 428.88 41.086C429.524 40.638 429.846 40.064 429.846 39.364C429.846 38.608 429.454 38.048 428.67 37.684C427.914 37.292 426.696 36.872 425.016 36.424C423.28 36.004 421.852 35.57 420.732 35.122C419.64 34.674 418.688 33.988 417.876 33.064C417.092 32.14 416.7 30.894 416.7 29.326C416.7 28.038 417.064 26.862 417.792 25.798C418.548 24.734 419.612 23.894 420.984 23.278C422.384 22.662 424.022 22.354 425.898 22.354C428.67 22.354 430.882 23.054 432.534 24.454C434.186 25.826 435.096 27.688 435.264 30.04H429.636C429.552 29.116 429.16 28.388 428.46 27.856C427.788 27.296 426.878 27.016 425.73 27.016C424.666 27.016 423.84 27.212 423.252 27.604C422.692 27.996 422.412 28.542 422.412 29.242C422.412 30.026 422.804 30.628 423.588 31.048C424.372 31.44 425.59 31.846 427.242 32.266C428.922 32.686 430.308 33.12 431.4 33.568C432.492 34.016 433.43 34.716 434.214 35.668C435.026 36.592 435.446 37.824 435.474 39.364C435.474 40.708 435.096 41.912 434.34 42.976C433.612 44.04 432.548 44.88 431.148 45.496C429.776 46.084 428.166 46.378 426.318 46.378ZM443.282 19.96C442.246 19.96 441.378 19.638 440.678 18.994C440.006 18.322 439.67 17.496 439.67 16.516C439.67 15.536 440.006 14.724 440.678 14.08C441.378 13.408 442.246 13.072 443.282 13.072C444.318 13.072 445.172 13.408 445.844 14.08C446.544 14.724 446.894 15.536 446.894 16.516C446.894 17.496 446.544 18.322 445.844 18.994C445.172 19.638 444.318 19.96 443.282 19.96ZM446.18 22.732V46H440.3V22.732H446.18ZM458.836 27.562V38.818C458.836 39.602 459.018 40.176 459.382 40.54C459.774 40.876 460.418 41.044 461.314 41.044H464.044V46H460.348C455.392 46 452.914 43.592 452.914 38.776V27.562H450.142V22.732H452.914V16.978H458.836V22.732H464.044V27.562H458.836ZM7.386 97.282C7.386 94.93 7.848 92.844 8.772 91.024C9.724 89.204 10.998 87.804 12.594 86.824C14.218 85.844 16.024 85.354 18.012 85.354C19.748 85.354 21.26 85.704 22.548 86.404C23.864 87.104 24.914 87.986 25.698 89.05V85.732H31.62V109H25.698V105.598C24.942 106.69 23.892 107.6 22.548 108.328C21.232 109.028 19.706 109.378 17.97 109.378C16.01 109.378 14.218 108.874 12.594 107.866C10.998 106.858 9.724 105.444 8.772 103.624C7.848 101.776 7.386 99.662 7.386 97.282ZM25.698 97.366C25.698 95.938 25.418 94.72 24.858 93.712C24.298 92.676 23.542 91.892 22.59 91.36C21.638 90.8 20.616 90.52 19.524 90.52C18.432 90.52 17.424 90.786 16.5 91.318C15.576 91.85 14.82 92.634 14.232 93.67C13.672 94.678 13.392 95.882 13.392 97.282C13.392 98.682 13.672 99.914 14.232 100.978C14.82 102.014 15.576 102.812 16.5 103.372C17.452 103.932 18.46 104.212 19.524 104.212C20.616 104.212 21.638 103.946 22.59 103.414C23.542 102.854 24.298 102.07 24.858 101.062C25.418 100.026 25.698 98.794 25.698 97.366ZM66.2588 85.396C69.1148 85.396 71.4108 86.278 73.1468 88.042C74.9108 89.778 75.7928 92.214 75.7928 95.35V109H69.9128V96.148C69.9128 94.328 69.4508 92.942 68.5268 91.99C67.6028 91.01 66.3428 90.52 64.7468 90.52C63.1508 90.52 61.8768 91.01 60.9248 91.99C60.0008 92.942 59.5388 94.328 59.5388 96.148V109H53.6588V96.148C53.6588 94.328 53.1968 92.942 52.2728 91.99C51.3488 91.01 50.0888 90.52 48.4928 90.52C46.8688 90.52 45.5808 91.01 44.6288 91.99C43.7048 92.942 43.2428 94.328 43.2428 96.148V109H37.3628V85.732H43.2428V88.546C43.9988 87.566 44.9648 86.796 46.1408 86.236C47.3448 85.676 48.6608 85.396 50.0888 85.396C51.9088 85.396 53.5328 85.788 54.9608 86.572C56.3888 87.328 57.4948 88.42 58.2788 89.848C59.0348 88.504 60.1268 87.426 61.5548 86.614C63.0108 85.802 64.5788 85.396 66.2588 85.396ZM103.003 96.862C103.003 97.702 102.947 98.458 102.835 99.13H85.8246C85.9646 100.81 86.5526 102.126 87.5886 103.078C88.6246 104.03 89.8986 104.506 91.4106 104.506C93.5946 104.506 95.1486 103.568 96.0726 101.692H102.415C101.743 103.932 100.455 105.78 98.5506 107.236C96.6466 108.664 94.3086 109.378 91.5366 109.378C89.2966 109.378 87.2806 108.888 85.4886 107.908C83.7246 106.9 82.3386 105.486 81.3306 103.666C80.3506 101.846 79.8606 99.746 79.8606 97.366C79.8606 94.958 80.3506 92.844 81.3306 91.024C82.3106 89.204 83.6826 87.804 85.4466 86.824C87.2106 85.844 89.2406 85.354 91.5366 85.354C93.7486 85.354 95.7226 85.83 97.4586 86.782C99.2226 87.734 100.581 89.092 101.533 90.856C102.513 92.592 103.003 94.594 103.003 96.862ZM96.9126 95.182C96.8846 93.67 96.3386 92.466 95.2746 91.57C94.2106 90.646 92.9086 90.184 91.3686 90.184C89.9126 90.184 88.6806 90.632 87.6726 91.528C86.6926 92.396 86.0906 93.614 85.8666 95.182H96.9126ZM114.14 90.562V101.818C114.14 102.602 114.322 103.176 114.686 103.54C115.078 103.876 115.722 104.044 116.618 104.044H119.348V109H115.652C110.696 109 108.218 106.592 108.218 101.776V90.562H105.446V85.732H108.218V79.978H114.14V85.732H119.348V90.562H114.14ZM130.004 102.826L125.09 114.628H121.31L124.04 102.826H130.004ZM142.738 97.366C142.738 94.958 143.228 92.858 144.208 91.066C145.188 89.246 146.546 87.846 148.282 86.866C150.018 85.858 152.006 85.354 154.246 85.354C157.13 85.354 159.51 86.082 161.386 87.538C163.29 88.966 164.564 90.982 165.208 93.586H158.866C158.53 92.578 157.956 91.794 157.144 91.234C156.36 90.646 155.38 90.352 154.204 90.352C152.524 90.352 151.194 90.968 150.214 92.2C149.234 93.404 148.744 95.126 148.744 97.366C148.744 99.578 149.234 101.3 150.214 102.532C151.194 103.736 152.524 104.338 154.204 104.338C156.584 104.338 158.138 103.274 158.866 101.146H165.208C164.564 103.666 163.29 105.668 161.386 107.152C159.482 108.636 157.102 109.378 154.246 109.378C152.006 109.378 150.018 108.888 148.282 107.908C146.546 106.9 145.188 105.5 144.208 103.708C143.228 101.888 142.738 99.774 142.738 97.366ZM179.847 109.378C177.607 109.378 175.591 108.888 173.799 107.908C172.007 106.9 170.593 105.486 169.557 103.666C168.549 101.846 168.045 99.746 168.045 97.366C168.045 94.986 168.563 92.886 169.599 91.066C170.663 89.246 172.105 87.846 173.925 86.866C175.745 85.858 177.775 85.354 180.015 85.354C182.255 85.354 184.285 85.858 186.105 86.866C187.925 87.846 189.353 89.246 190.389 91.066C191.453 92.886 191.985 94.986 191.985 97.366C191.985 99.746 191.439 101.846 190.347 103.666C189.283 105.486 187.827 106.9 185.979 107.908C184.159 108.888 182.115 109.378 179.847 109.378ZM179.847 104.254C180.911 104.254 181.905 104.002 182.829 103.498C183.781 102.966 184.537 102.182 185.097 101.146C185.657 100.11 185.937 98.85 185.937 97.366C185.937 95.154 185.349 93.46 184.173 92.284C183.025 91.08 181.611 90.478 179.931 90.478C178.251 90.478 176.837 91.08 175.689 92.284C174.569 93.46 174.009 95.154 174.009 97.366C174.009 99.578 174.555 101.286 175.647 102.49C176.767 103.666 178.167 104.254 179.847 104.254ZM209.192 85.396C211.964 85.396 214.204 86.278 215.912 88.042C217.62 89.778 218.474 92.214 218.474 95.35V109H212.594V96.148C212.594 94.3 212.132 92.886 211.208 91.906C210.284 90.898 209.024 90.394 207.428 90.394C205.804 90.394 204.516 90.898 203.564 91.906C202.64 92.886 202.178 94.3 202.178 96.148V109H196.298V85.732H202.178V88.63C202.962 87.622 203.956 86.838 205.16 86.278C206.392 85.69 207.736 85.396 209.192 85.396ZM232.97 109.378C231.066 109.378 229.358 109.042 227.846 108.37C226.334 107.67 225.13 106.732 224.234 105.556C223.366 104.38 222.89 103.078 222.806 101.65H228.728C228.84 102.546 229.274 103.288 230.03 103.876C230.814 104.464 231.78 104.758 232.928 104.758C234.048 104.758 234.916 104.534 235.532 104.086C236.176 103.638 236.498 103.064 236.498 102.364C236.498 101.608 236.106 101.048 235.322 100.684C234.566 100.292 233.348 99.872 231.668 99.424C229.932 99.004 228.504 98.57 227.384 98.122C226.292 97.674 225.34 96.988 224.528 96.064C223.744 95.14 223.352 93.894 223.352 92.326C223.352 91.038 223.716 89.862 224.444 88.798C225.2 87.734 226.264 86.894 227.636 86.278C229.036 85.662 230.674 85.354 232.55 85.354C235.322 85.354 237.534 86.054 239.186 87.454C240.838 88.826 241.748 90.688 241.916 93.04H236.288C236.204 92.116 235.812 91.388 235.112 90.856C234.44 90.296 233.53 90.016 232.382 90.016C231.318 90.016 230.492 90.212 229.904 90.604C229.344 90.996 229.064 91.542 229.064 92.242C229.064 93.026 229.456 93.628 230.24 94.048C231.024 94.44 232.242 94.846 233.894 95.266C235.574 95.686 236.96 96.12 238.052 96.568C239.144 97.016 240.082 97.716 240.866 98.668C241.678 99.592 242.098 100.824 242.126 102.364C242.126 103.708 241.748 104.912 240.992 105.976C240.264 107.04 239.2 107.88 237.8 108.496C236.428 109.084 234.818 109.378 232.97 109.378ZM268.583 96.862C268.583 97.702 268.527 98.458 268.415 99.13H251.405C251.545 100.81 252.133 102.126 253.169 103.078C254.205 104.03 255.479 104.506 256.991 104.506C259.175 104.506 260.729 103.568 261.653 101.692H267.995C267.323 103.932 266.035 105.78 264.131 107.236C262.227 108.664 259.889 109.378 257.117 109.378C254.877 109.378 252.861 108.888 251.069 107.908C249.305 106.9 247.919 105.486 246.911 103.666C245.931 101.846 245.441 99.746 245.441 97.366C245.441 94.958 245.931 92.844 246.911 91.024C247.891 89.204 249.263 87.804 251.027 86.824C252.791 85.844 254.821 85.354 257.117 85.354C259.329 85.354 261.303 85.83 263.039 86.782C264.803 87.734 266.161 89.092 267.113 90.856C268.093 92.592 268.583 94.594 268.583 96.862ZM262.493 95.182C262.465 93.67 261.919 92.466 260.855 91.57C259.791 90.646 258.489 90.184 256.949 90.184C255.493 90.184 254.261 90.632 253.253 91.528C252.273 92.396 251.671 93.614 251.447 95.182H262.493ZM271.363 97.366C271.363 94.958 271.853 92.858 272.833 91.066C273.813 89.246 275.171 87.846 276.907 86.866C278.643 85.858 280.631 85.354 282.871 85.354C285.755 85.354 288.135 86.082 290.011 87.538C291.915 88.966 293.189 90.982 293.833 93.586H287.491C287.155 92.578 286.581 91.794 285.769 91.234C284.985 90.646 284.005 90.352 282.829 90.352C281.149 90.352 279.819 90.968 278.839 92.2C277.859 93.404 277.369 95.126 277.369 97.366C277.369 99.578 277.859 101.3 278.839 102.532C279.819 103.736 281.149 104.338 282.829 104.338C285.209 104.338 286.763 103.274 287.491 101.146H293.833C293.189 103.666 291.915 105.668 290.011 107.152C288.107 108.636 285.727 109.378 282.871 109.378C280.631 109.378 278.643 108.888 276.907 107.908C275.171 106.9 273.813 105.5 272.833 103.708C271.853 101.888 271.363 99.774 271.363 97.366ZM304.986 90.562V101.818C304.986 102.602 305.168 103.176 305.532 103.54C305.924 103.876 306.568 104.044 307.464 104.044H310.194V109H306.498C301.542 109 299.064 106.592 299.064 101.776V90.562H296.292V85.732H299.064V79.978H304.986V85.732H310.194V90.562H304.986ZM336.053 96.862C336.053 97.702 335.997 98.458 335.885 99.13H318.875C319.015 100.81 319.603 102.126 320.639 103.078C321.675 104.03 322.949 104.506 324.461 104.506C326.645 104.506 328.199 103.568 329.123 101.692H335.465C334.793 103.932 333.505 105.78 331.601 107.236C329.697 108.664 327.359 109.378 324.587 109.378C322.347 109.378 320.331 108.888 318.539 107.908C316.775 106.9 315.389 105.486 314.381 103.666C313.401 101.846 312.911 99.746 312.911 97.366C312.911 94.958 313.401 92.844 314.381 91.024C315.361 89.204 316.733 87.804 318.497 86.824C320.261 85.844 322.291 85.354 324.587 85.354C326.799 85.354 328.773 85.83 330.509 86.782C332.273 87.734 333.631 89.092 334.583 90.856C335.563 92.592 336.053 94.594 336.053 96.862ZM329.963 95.182C329.935 93.67 329.389 92.466 328.325 91.57C327.261 90.646 325.959 90.184 324.419 90.184C322.963 90.184 321.731 90.632 320.723 91.528C319.743 92.396 319.141 93.614 318.917 95.182H329.963ZM347.191 90.562V101.818C347.191 102.602 347.373 103.176 347.737 103.54C348.129 103.876 348.773 104.044 349.669 104.044H352.399V109H348.703C343.747 109 341.269 106.592 341.269 101.776V90.562H338.497V85.732H341.269V79.978H347.191V85.732H352.399V90.562H347.191ZM378.594 85.732V109H372.672V106.06C371.916 107.068 370.922 107.866 369.69 108.454C368.486 109.014 367.17 109.294 365.742 109.294C363.922 109.294 362.312 108.916 360.912 108.16C359.512 107.376 358.406 106.242 357.594 104.758C356.81 103.246 356.418 101.454 356.418 99.382V85.732H362.298V98.542C362.298 100.39 362.76 101.818 363.684 102.826C364.608 103.806 365.868 104.296 367.464 104.296C369.088 104.296 370.362 103.806 371.286 102.826C372.21 101.818 372.672 100.39 372.672 98.542V85.732H378.594ZM390.276 89.344C391.032 88.112 392.012 87.146 393.216 86.446C394.448 85.746 395.848 85.396 397.416 85.396V91.57H395.862C394.014 91.57 392.614 92.004 391.662 92.872C390.738 93.74 390.276 95.252 390.276 97.408V109H384.396V85.732H390.276V89.344Z" fill="#363C63"/>
<path d="M10.9176 167H21.4602V164.733H13.5511V149.545H10.9176V167ZM29.7741 167.264C33.4645 167.264 35.8764 164.562 35.8764 160.514C35.8764 156.44 33.4645 153.739 29.7741 153.739C26.0838 153.739 23.6719 156.44 23.6719 160.514C23.6719 164.562 26.0838 167.264 29.7741 167.264ZM29.7827 165.125C27.3707 165.125 26.2457 163.02 26.2457 160.506C26.2457 158 27.3707 155.869 29.7827 155.869C32.1776 155.869 33.3026 158 33.3026 160.506C33.3026 163.02 32.1776 165.125 29.7827 165.125ZM38.7209 167H41.2692V159.006C41.2692 157.293 42.5902 156.057 44.397 156.057C44.9254 156.057 45.522 156.151 45.7266 156.21V153.773C45.4709 153.739 44.968 153.713 44.6442 153.713C43.1101 153.713 41.7976 154.582 41.3203 155.989H41.1839V153.909H38.7209V167ZM53.1051 167.264C55.9602 167.264 57.9801 165.858 58.5597 163.727L56.1477 163.293C55.6875 164.528 54.5795 165.159 53.1307 165.159C50.9489 165.159 49.483 163.744 49.4148 161.222H58.7216V160.318C58.7216 155.588 55.892 153.739 52.9261 153.739C49.2784 153.739 46.875 156.517 46.875 160.54C46.875 164.605 49.2443 167.264 53.1051 167.264ZM49.4233 159.312C49.5256 157.455 50.8722 155.844 52.9432 155.844C54.9205 155.844 56.2159 157.31 56.2244 159.312H49.4233ZM61.549 167H64.0973V158.929C64.0973 157.165 65.3331 155.938 66.782 155.938C68.1967 155.938 69.1768 156.875 69.1768 158.298V167H71.7166V158.656C71.7166 157.08 72.6797 155.938 74.3416 155.938C75.6882 155.938 76.7962 156.688 76.7962 158.46V167H79.3445V158.222C79.3445 155.23 77.674 153.739 75.3047 153.739C73.4212 153.739 72.0064 154.642 71.3757 156.04H71.2393C70.6683 154.608 69.4666 153.739 67.7195 153.739C65.9893 153.739 64.7024 154.599 64.157 156.04H63.995V153.909H61.549V167ZM89.1115 167H91.6598V153.909H89.1115V167ZM90.3984 151.889C91.2763 151.889 92.0092 151.207 92.0092 150.372C92.0092 149.537 91.2763 148.847 90.3984 148.847C89.5121 148.847 88.7876 149.537 88.7876 150.372C88.7876 151.207 89.5121 151.889 90.3984 151.889ZM95.0881 171.909H97.6364V164.963H97.7898C98.25 165.798 99.1875 167.256 101.574 167.256C104.744 167.256 107.045 164.716 107.045 160.48C107.045 156.236 104.71 153.739 101.548 153.739C99.1193 153.739 98.2415 155.222 97.7898 156.031H97.5767V153.909H95.0881V171.909ZM97.5852 160.455C97.5852 157.719 98.7784 155.903 101.003 155.903C103.312 155.903 104.472 157.855 104.472 160.455C104.472 163.08 103.278 165.082 101.003 165.082C98.8125 165.082 97.5852 163.207 97.5852 160.455ZM119.71 157.105C119.182 155.068 117.588 153.739 114.759 153.739C111.801 153.739 109.705 155.298 109.705 157.616C109.705 159.474 110.83 160.71 113.284 161.256L115.5 161.741C116.761 162.023 117.349 162.585 117.349 163.403C117.349 164.418 116.267 165.21 114.597 165.21C113.071 165.21 112.091 164.554 111.784 163.267L109.321 163.642C109.747 165.96 111.673 167.264 114.614 167.264C117.776 167.264 119.966 165.585 119.966 163.216C119.966 161.366 118.79 160.224 116.386 159.67L114.307 159.193C112.866 158.852 112.244 158.366 112.253 157.48C112.244 156.474 113.335 155.759 114.784 155.759C116.369 155.759 117.102 156.636 117.401 157.514L119.71 157.105ZM131.06 161.571C131.069 163.795 129.415 164.852 127.984 164.852C126.407 164.852 125.316 163.71 125.316 161.929V153.909H122.768V162.236C122.768 165.483 124.549 167.17 127.063 167.17C129.032 167.17 130.37 166.131 130.975 164.733H131.112V167H133.617V153.909H131.06V161.571ZM137.041 167H139.589V158.929C139.589 157.165 140.825 155.938 142.274 155.938C143.689 155.938 144.669 156.875 144.669 158.298V167H147.209V158.656C147.209 157.08 148.172 155.938 149.834 155.938C151.18 155.938 152.288 156.688 152.288 158.46V167H154.837V158.222C154.837 155.23 153.166 153.739 150.797 153.739C148.913 153.739 147.499 154.642 146.868 156.04H146.732C146.161 154.608 144.959 153.739 143.212 153.739C141.482 153.739 140.195 154.599 139.649 156.04H139.487V153.909H137.041V167ZM169.504 167.256C171.891 167.256 172.828 165.798 173.288 164.963H173.501V167H175.99V149.545H173.442V156.031H173.288C172.828 155.222 171.959 153.739 169.521 153.739C166.359 153.739 164.033 156.236 164.033 160.48C164.033 164.716 166.325 167.256 169.504 167.256ZM170.067 165.082C167.791 165.082 166.607 163.08 166.607 160.455C166.607 157.855 167.766 155.903 170.067 155.903C172.291 155.903 173.484 157.719 173.484 160.455C173.484 163.207 172.266 165.082 170.067 165.082ZM185.141 167.264C188.832 167.264 191.244 164.562 191.244 160.514C191.244 156.44 188.832 153.739 185.141 153.739C181.451 153.739 179.039 156.44 179.039 160.514C179.039 164.562 181.451 167.264 185.141 167.264ZM185.15 165.125C182.738 165.125 181.613 163.02 181.613 160.506C181.613 158 182.738 155.869 185.15 155.869C187.545 155.869 188.67 158 188.67 160.506C188.67 163.02 187.545 165.125 185.15 165.125ZM196.636 149.545H194.088V167H196.636V149.545ZM205.579 167.264C209.269 167.264 211.681 164.562 211.681 160.514C211.681 156.44 209.269 153.739 205.579 153.739C201.888 153.739 199.477 156.44 199.477 160.514C199.477 164.562 201.888 167.264 205.579 167.264ZM205.587 165.125C203.175 165.125 202.05 163.02 202.05 160.506C202.05 158 203.175 155.869 205.587 155.869C207.982 155.869 209.107 158 209.107 160.506C209.107 163.02 207.982 165.125 205.587 165.125ZM214.526 167H217.074V159.006C217.074 157.293 218.395 156.057 220.202 156.057C220.73 156.057 221.327 156.151 221.531 156.21V153.773C221.276 153.739 220.773 153.713 220.449 153.713C218.915 153.713 217.602 154.582 217.125 155.989H216.989V153.909H214.526V167ZM239.898 157.105C239.369 155.068 237.776 153.739 234.946 153.739C231.989 153.739 229.892 155.298 229.892 157.616C229.892 159.474 231.017 160.71 233.472 161.256L235.688 161.741C236.949 162.023 237.537 162.585 237.537 163.403C237.537 164.418 236.455 165.21 234.784 165.21C233.259 165.21 232.278 164.554 231.972 163.267L229.509 163.642C229.935 165.96 231.861 167.264 234.801 167.264C237.963 167.264 240.153 165.585 240.153 163.216C240.153 161.366 238.977 160.224 236.574 159.67L234.494 159.193C233.054 158.852 232.432 158.366 232.44 157.48C232.432 156.474 233.523 155.759 234.972 155.759C236.557 155.759 237.29 156.636 237.588 157.514L239.898 157.105ZM242.955 167H245.504V153.909H242.955V167ZM244.242 151.889C245.12 151.889 245.853 151.207 245.853 150.372C245.853 149.537 245.12 148.847 244.242 148.847C243.356 148.847 242.631 149.537 242.631 150.372C242.631 151.207 243.356 151.889 244.242 151.889ZM255.043 153.909H252.358V150.773H249.81V153.909H247.892V155.955H249.81V163.685C249.801 166.062 251.616 167.213 253.628 167.17C254.438 167.162 254.983 167.009 255.281 166.898L254.821 164.793C254.651 164.827 254.335 164.903 253.926 164.903C253.099 164.903 252.358 164.631 252.358 163.156V155.955H255.043V153.909ZM268.023 167.29C270.188 167.29 271.406 166.19 271.892 165.21H271.994V167H274.483V158.307C274.483 154.497 271.483 153.739 269.403 153.739C267.034 153.739 264.852 154.693 264 157.08L266.395 157.625C266.77 156.696 267.724 155.801 269.438 155.801C271.082 155.801 271.926 156.662 271.926 158.145V158.205C271.926 159.134 270.972 159.116 268.619 159.389C266.139 159.679 263.599 160.327 263.599 163.301C263.599 165.875 265.534 167.29 268.023 167.29ZM268.577 165.244C267.136 165.244 266.097 164.597 266.097 163.335C266.097 161.972 267.307 161.486 268.781 161.29C269.608 161.179 271.568 160.957 271.935 160.591V162.278C271.935 163.83 270.699 165.244 268.577 165.244ZM277.877 167H280.425V158.929C280.425 157.165 281.661 155.938 283.11 155.938C284.525 155.938 285.505 156.875 285.505 158.298V167H288.045V158.656C288.045 157.08 289.008 155.938 290.67 155.938C292.016 155.938 293.124 156.688 293.124 158.46V167H295.673V158.222C295.673 155.23 294.002 153.739 291.633 153.739C289.749 153.739 288.335 154.642 287.704 156.04H287.567C286.996 154.608 285.795 153.739 284.048 153.739C282.317 153.739 281.031 154.599 280.485 156.04H280.323V153.909H277.877V167ZM304.73 167.264C307.585 167.264 309.605 165.858 310.185 163.727L307.773 163.293C307.312 164.528 306.205 165.159 304.756 165.159C302.574 165.159 301.108 163.744 301.04 161.222H310.347V160.318C310.347 155.588 307.517 153.739 304.551 153.739C300.903 153.739 298.5 156.517 298.5 160.54C298.5 164.605 300.869 167.264 304.73 167.264ZM301.048 159.312C301.151 157.455 302.497 155.844 304.568 155.844C306.545 155.844 307.841 157.31 307.849 159.312H301.048ZM319.285 153.909H316.6V150.773H314.052V153.909H312.134V155.955H314.052V163.685C314.043 166.062 315.859 167.213 317.87 167.17C318.68 167.162 319.225 167.009 319.523 166.898L319.063 164.793C318.893 164.827 318.577 164.903 318.168 164.903C317.342 164.903 316.6 164.631 316.6 163.156V155.955H319.285V153.909ZM325.419 164.614H322.964L322.879 165.568C322.683 167.878 322.138 170.205 321.908 171.261H323.714C324.124 170.145 325.027 167.588 325.291 165.543L325.419 164.614ZM16.2273 207.264C19.321 207.264 21.3239 205.406 21.6051 202.858H19.125C18.8011 204.273 17.7017 205.108 16.2443 205.108C14.0881 205.108 12.6989 203.31 12.6989 200.455C12.6989 197.651 14.1136 195.886 16.2443 195.886C17.8636 195.886 18.8523 196.909 19.125 198.136H21.6051C21.3324 195.494 19.1761 193.739 16.2017 193.739C12.5114 193.739 10.125 196.517 10.125 200.514C10.125 204.46 12.4261 207.264 16.2273 207.264ZM29.8445 207.264C33.5348 207.264 35.9467 204.562 35.9467 200.514C35.9467 196.44 33.5348 193.739 29.8445 193.739C26.1541 193.739 23.7422 196.44 23.7422 200.514C23.7422 204.562 26.1541 207.264 29.8445 207.264ZM29.853 205.125C27.4411 205.125 26.3161 203.02 26.3161 200.506C26.3161 198 27.4411 195.869 29.853 195.869C32.2479 195.869 33.3729 198 33.3729 200.506C33.3729 203.02 32.2479 205.125 29.853 205.125ZM41.3395 199.227C41.3395 197.139 42.6179 195.946 44.3906 195.946C46.1207 195.946 47.169 197.08 47.169 198.98V207H49.7173V198.673C49.7173 195.435 47.9361 193.739 45.2599 193.739C43.2912 193.739 42.0043 194.651 41.3991 196.04H41.2372V193.909H38.7912V207H41.3395V199.227ZM62.9446 197.105C62.4162 195.068 60.8224 193.739 57.9929 193.739C55.0355 193.739 52.9389 195.298 52.9389 197.616C52.9389 199.474 54.0639 200.71 56.5185 201.256L58.7344 201.741C59.9957 202.023 60.5838 202.585 60.5838 203.403C60.5838 204.418 59.5014 205.21 57.831 205.21C56.3054 205.21 55.3253 204.554 55.0185 203.267L52.5554 203.642C52.9815 205.96 54.9077 207.264 57.848 207.264C61.0099 207.264 63.2003 205.585 63.2003 203.216C63.2003 201.366 62.0241 200.224 59.6207 199.67L57.5412 199.193C56.1009 198.852 55.4787 198.366 55.4872 197.48C55.4787 196.474 56.5696 195.759 58.0185 195.759C59.6037 195.759 60.3366 196.636 60.6349 197.514L62.9446 197.105ZM71.6442 207.264C74.4993 207.264 76.5192 205.858 77.0987 203.727L74.6868 203.293C74.2266 204.528 73.1186 205.159 71.6697 205.159C69.4879 205.159 68.022 203.744 67.9538 201.222H77.2607V200.318C77.2607 195.588 74.4311 193.739 71.4652 193.739C67.8175 193.739 65.4141 196.517 65.4141 200.54C65.4141 204.605 67.7834 207.264 71.6442 207.264ZM67.9624 199.312C68.0646 197.455 69.4112 195.844 71.4822 195.844C73.4595 195.844 74.755 197.31 74.7635 199.312H67.9624ZM85.6023 207.264C88.696 207.264 90.6989 205.406 90.9801 202.858H88.5C88.1761 204.273 87.0767 205.108 85.6193 205.108C83.4631 205.108 82.0739 203.31 82.0739 200.455C82.0739 197.651 83.4886 195.886 85.6193 195.886C87.2386 195.886 88.2273 196.909 88.5 198.136H90.9801C90.7074 195.494 88.5511 193.739 85.5767 193.739C81.8864 193.739 79.5 196.517 79.5 200.514C79.5 204.46 81.8011 207.264 85.6023 207.264ZM99.8161 193.909H97.1314V190.773H94.5831V193.909H92.6655V195.955H94.5831V203.685C94.5746 206.062 96.3899 207.213 98.4013 207.17C99.2109 207.162 99.7564 207.009 100.055 206.898L99.5945 204.793C99.424 204.827 99.1087 204.903 98.6996 204.903C97.8729 204.903 97.1314 204.631 97.1314 203.156V195.955H99.8161V193.909ZM108.136 207.264C110.991 207.264 113.011 205.858 113.591 203.727L111.179 203.293C110.719 204.528 109.611 205.159 108.162 205.159C105.98 205.159 104.514 203.744 104.446 201.222H113.753V200.318C113.753 195.588 110.923 193.739 107.957 193.739C104.31 193.739 101.906 196.517 101.906 200.54C101.906 204.605 104.276 207.264 108.136 207.264ZM104.455 199.312C104.557 197.455 105.903 195.844 107.974 195.844C109.952 195.844 111.247 197.31 111.256 199.312H104.455ZM122.691 193.909H120.006V190.773H117.458V193.909H115.54V195.955H117.458V203.685C117.45 206.062 119.265 207.213 121.276 207.17C122.086 207.162 122.631 207.009 122.93 206.898L122.469 204.793C122.299 204.827 121.984 204.903 121.575 204.903C120.748 204.903 120.006 204.631 120.006 203.156V195.955H122.691V193.909ZM133.803 201.571C133.811 203.795 132.158 204.852 130.726 204.852C129.149 204.852 128.058 203.71 128.058 201.929V193.909H125.51V202.236C125.51 205.483 127.291 207.17 129.805 207.17C131.774 207.17 133.112 206.131 133.717 204.733H133.854V207H136.359V193.909H133.803V201.571ZM139.783 207H142.332V199.006C142.332 197.293 143.653 196.057 145.46 196.057C145.988 196.057 146.585 196.151 146.789 196.21V193.773C146.533 193.739 146.031 193.713 145.707 193.713C144.173 193.713 142.86 194.582 142.383 195.989H142.246V193.909H139.783V207ZM159.156 207.29C161.32 207.29 162.539 206.19 163.025 205.21H163.127V207H165.616V198.307C165.616 194.497 162.616 193.739 160.536 193.739C158.167 193.739 155.985 194.693 155.133 197.08L157.528 197.625C157.903 196.696 158.857 195.801 160.57 195.801C162.215 195.801 163.059 196.662 163.059 198.145V198.205C163.059 199.134 162.104 199.116 159.752 199.389C157.272 199.679 154.732 200.327 154.732 203.301C154.732 205.875 156.667 207.29 159.156 207.29ZM159.71 205.244C158.269 205.244 157.229 204.597 157.229 203.335C157.229 201.972 158.44 201.486 159.914 201.29C160.741 201.179 162.701 200.957 163.067 200.591V202.278C163.067 203.83 161.832 205.244 159.71 205.244ZM173.911 207.256C176.297 207.256 177.234 205.798 177.695 204.963H177.908V207H180.396V189.545H177.848V196.031H177.695C177.234 195.222 176.365 193.739 173.928 193.739C170.766 193.739 168.439 196.236 168.439 200.48C168.439 204.716 170.732 207.256 173.911 207.256ZM174.473 205.082C172.197 205.082 171.013 203.08 171.013 200.455C171.013 197.855 172.172 195.903 174.473 195.903C176.697 195.903 177.891 197.719 177.891 200.455C177.891 203.207 176.672 205.082 174.473 205.082ZM184.033 207H186.582V193.909H184.033V207ZM185.32 191.889C186.198 191.889 186.931 191.207 186.931 190.372C186.931 189.537 186.198 188.847 185.32 188.847C184.434 188.847 183.71 189.537 183.71 190.372C183.71 191.207 184.434 191.889 185.32 191.889ZM190.01 211.909H192.558V204.963H192.712C193.172 205.798 194.109 207.256 196.496 207.256C199.666 207.256 201.967 204.716 201.967 200.48C201.967 196.236 199.632 193.739 196.47 193.739C194.041 193.739 193.163 195.222 192.712 196.031H192.499V193.909H190.01V211.909ZM192.507 200.455C192.507 197.719 193.7 195.903 195.925 195.903C198.234 195.903 199.393 197.855 199.393 200.455C199.393 203.08 198.2 205.082 195.925 205.082C193.734 205.082 192.507 203.207 192.507 200.455ZM204.822 207H207.371V193.909H204.822V207ZM206.109 191.889C206.987 191.889 207.72 191.207 207.72 190.372C207.72 189.537 206.987 188.847 206.109 188.847C205.223 188.847 204.499 189.537 204.499 190.372C204.499 191.207 205.223 191.889 206.109 191.889ZM220.609 197.105C220.08 195.068 218.487 193.739 215.657 193.739C212.7 193.739 210.603 195.298 210.603 197.616C210.603 199.474 211.728 200.71 214.183 201.256L216.398 201.741C217.66 202.023 218.248 202.585 218.248 203.403C218.248 204.418 217.165 205.21 215.495 205.21C213.969 205.21 212.989 204.554 212.683 203.267L210.219 203.642C210.646 205.96 212.572 207.264 215.512 207.264C218.674 207.264 220.864 205.585 220.864 203.216C220.864 201.366 219.688 200.224 217.285 199.67L215.205 199.193C213.765 198.852 213.143 198.366 213.151 197.48C213.143 196.474 214.234 195.759 215.683 195.759C217.268 195.759 218.001 196.636 218.299 197.514L220.609 197.105ZM229.18 207.264C232.274 207.264 234.277 205.406 234.558 202.858H232.078C231.754 204.273 230.655 205.108 229.197 205.108C227.041 205.108 225.652 203.31 225.652 200.455C225.652 197.651 227.067 195.886 229.197 195.886C230.817 195.886 231.805 196.909 232.078 198.136H234.558C234.286 195.494 232.129 193.739 229.155 193.739C225.464 193.739 223.078 196.517 223.078 200.514C223.078 204.46 225.379 207.264 229.18 207.264ZM237.283 207H239.832V193.909H237.283V207ZM238.57 191.889C239.448 191.889 240.181 191.207 240.181 190.372C240.181 189.537 239.448 188.847 238.57 188.847C237.684 188.847 236.96 189.537 236.96 190.372C236.96 191.207 237.684 191.889 238.57 191.889ZM245.808 199.227C245.808 197.139 247.087 195.946 248.859 195.946C250.589 195.946 251.638 197.08 251.638 198.98V207H254.186V198.673C254.186 195.435 252.405 193.739 249.729 193.739C247.76 193.739 246.473 194.651 245.868 196.04H245.706V193.909H243.26V207H245.808V199.227ZM263.092 212.182C266.425 212.182 268.999 210.656 268.999 207.29V193.909H266.501V196.031H266.314C265.862 195.222 264.959 193.739 262.521 193.739C259.359 193.739 257.033 196.236 257.033 200.403C257.033 204.58 259.411 206.804 262.504 206.804C264.908 206.804 265.837 205.449 266.297 204.614H266.459V207.188C266.459 209.241 265.053 210.128 263.118 210.128C260.996 210.128 260.169 209.062 259.717 208.312L257.527 209.216C258.217 210.818 259.964 212.182 263.092 212.182ZM263.067 204.69C260.791 204.69 259.607 202.943 259.607 200.369C259.607 197.855 260.766 195.903 263.067 195.903C265.291 195.903 266.484 197.719 266.484 200.369C266.484 203.071 265.266 204.69 263.067 204.69ZM284.41 207.264C287.265 207.264 289.285 205.858 289.864 203.727L287.452 203.293C286.992 204.528 285.884 205.159 284.435 205.159C282.254 205.159 280.788 203.744 280.719 201.222H290.026V200.318C290.026 195.588 287.197 193.739 284.231 193.739C280.583 193.739 278.18 196.517 278.18 200.54C278.18 204.605 280.549 207.264 284.41 207.264ZM280.728 199.312C280.83 197.455 282.177 195.844 284.248 195.844C286.225 195.844 287.521 197.31 287.529 199.312H280.728ZM295.402 189.545H292.854V207H295.402V189.545ZM298.83 207H301.379V193.909H298.83V207ZM300.117 191.889C300.995 191.889 301.728 191.207 301.728 190.372C301.728 189.537 300.995 188.847 300.117 188.847C299.231 188.847 298.506 189.537 298.506 190.372C298.506 191.207 299.231 191.889 300.117 191.889ZM310.918 193.909H308.233V190.773H305.685V193.909H303.767V195.955H305.685V203.685C305.676 206.062 307.491 207.213 309.503 207.17C310.312 207.162 310.858 207.009 311.156 206.898L310.696 204.793C310.526 204.827 310.21 204.903 309.801 204.903C308.974 204.903 308.233 204.631 308.233 203.156V195.955H310.918V193.909ZM328.381 201.571C328.389 203.795 326.736 204.852 325.304 204.852C323.727 204.852 322.636 203.71 322.636 201.929V193.909H320.088V202.236C320.088 205.483 321.869 207.17 324.384 207.17C326.352 207.17 327.69 206.131 328.295 204.733H328.432V207H330.938V193.909H328.381V201.571ZM340.472 193.909H337.788V190.773H335.239V193.909H333.322V195.955H335.239V203.685C335.231 206.062 337.046 207.213 339.058 207.17C339.867 207.162 340.413 207.009 340.711 206.898L340.251 204.793C340.08 204.827 339.765 204.903 339.356 204.903C338.529 204.903 337.788 204.631 337.788 203.156V195.955H340.472V193.909ZM353.452 207.29C355.617 207.29 356.836 206.19 357.322 205.21H357.424V207H359.913V198.307C359.913 194.497 356.913 193.739 354.833 193.739C352.464 193.739 350.282 194.693 349.43 197.08L351.825 197.625C352.2 196.696 353.154 195.801 354.867 195.801C356.512 195.801 357.356 196.662 357.356 198.145V198.205C357.356 199.134 356.401 199.116 354.049 199.389C351.569 199.679 349.029 200.327 349.029 203.301C349.029 205.875 350.964 207.29 353.452 207.29ZM354.006 205.244C352.566 205.244 351.526 204.597 351.526 203.335C351.526 201.972 352.737 201.486 354.211 201.29C355.038 201.179 356.998 200.957 357.364 200.591V202.278C357.364 203.83 356.129 205.244 354.006 205.244ZM365.855 189.545H363.307V207H365.855V189.545ZM369.283 207H371.832V193.909H369.283V207ZM370.57 191.889C371.448 191.889 372.181 191.207 372.181 190.372C372.181 189.537 371.448 188.847 370.57 188.847C369.684 188.847 368.96 189.537 368.96 190.372C368.96 191.207 369.684 191.889 370.57 191.889ZM386.646 211.909V193.909H384.158V196.031H383.945C383.493 195.222 382.615 193.739 380.186 193.739C377.024 193.739 374.689 196.236 374.689 200.48C374.689 204.716 376.99 207.256 380.161 207.256C382.547 207.256 383.484 205.798 383.945 204.963H384.098V211.909H386.646ZM384.149 200.455C384.149 203.207 382.922 205.082 380.732 205.082C378.456 205.082 377.263 203.08 377.263 200.455C377.263 197.855 378.422 195.903 380.732 195.903C382.956 195.903 384.149 197.719 384.149 200.455ZM398.365 201.571C398.374 203.795 396.72 204.852 395.288 204.852C393.712 204.852 392.621 203.71 392.621 201.929V193.909H390.072V202.236C390.072 205.483 391.854 207.17 394.368 207.17C396.337 207.17 397.675 206.131 398.28 204.733H398.416V207H400.922V193.909H398.365V201.571ZM408.156 207.29C410.32 207.29 411.539 206.19 412.025 205.21H412.127V207H414.616V198.307C414.616 194.497 411.616 193.739 409.536 193.739C407.167 193.739 404.985 194.693 404.133 197.08L406.528 197.625C406.903 196.696 407.857 195.801 409.57 195.801C411.215 195.801 412.059 196.662 412.059 198.145V198.205C412.059 199.134 411.104 199.116 408.752 199.389C406.272 199.679 403.732 200.327 403.732 203.301C403.732 205.875 405.667 207.29 408.156 207.29ZM408.71 205.244C407.269 205.244 406.229 204.597 406.229 203.335C406.229 201.972 407.44 201.486 408.914 201.29C409.741 201.179 411.701 200.957 412.067 200.591V202.278C412.067 203.83 410.832 205.244 408.71 205.244ZM418.01 207H420.558V198.929C420.558 197.165 421.794 195.938 423.243 195.938C424.658 195.938 425.638 196.875 425.638 198.298V207H428.178V198.656C428.178 197.08 429.141 195.938 430.803 195.938C432.149 195.938 433.257 196.688 433.257 198.46V207H435.805V198.222C435.805 195.23 434.135 193.739 431.766 193.739C429.882 193.739 428.467 194.642 427.837 196.04H427.7C427.129 194.608 425.928 193.739 424.18 193.739C422.45 193.739 421.163 194.599 420.618 196.04H420.456V193.909H418.01V207Z" fill="#5E6385"/>
<path d="M13.598 259.558H18.658V262H10.518V246.644H13.598V259.558ZM31.9457 255.642C31.9457 256.082 31.9163 256.478 31.8577 256.83H22.9477C23.021 257.71 23.329 258.399 23.8717 258.898C24.4143 259.397 25.0817 259.646 25.8737 259.646C27.0177 259.646 27.8317 259.155 28.3157 258.172H31.6377C31.2857 259.345 30.611 260.313 29.6137 261.076C28.6163 261.824 27.3917 262.198 25.9397 262.198C24.7663 262.198 23.7103 261.941 22.7717 261.428C21.8477 260.9 21.1217 260.159 20.5937 259.206C20.0803 258.253 19.8237 257.153 19.8237 255.906C19.8237 254.645 20.0803 253.537 20.5937 252.584C21.107 251.631 21.8257 250.897 22.7497 250.384C23.6737 249.871 24.737 249.614 25.9397 249.614C27.0983 249.614 28.1323 249.863 29.0417 250.362C29.9657 250.861 30.677 251.572 31.1757 252.496C31.689 253.405 31.9457 254.454 31.9457 255.642ZM28.7557 254.762C28.741 253.97 28.455 253.339 27.8977 252.87C27.3403 252.386 26.6583 252.144 25.8517 252.144C25.089 252.144 24.4437 252.379 23.9157 252.848C23.4023 253.303 23.087 253.941 22.9697 254.762H28.7557ZM33.4018 255.862C33.4018 254.63 33.6438 253.537 34.1278 252.584C34.6264 251.631 35.2938 250.897 36.1298 250.384C36.9804 249.871 37.9264 249.614 38.9678 249.614C39.8771 249.614 40.6691 249.797 41.3438 250.164C42.0331 250.531 42.5831 250.993 42.9938 251.55V249.812H46.0958V262H42.9938V260.218C42.5978 260.79 42.0478 261.267 41.3438 261.648C40.6544 262.015 39.8551 262.198 38.9458 262.198C37.9191 262.198 36.9804 261.934 36.1298 261.406C35.2938 260.878 34.6264 260.137 34.1278 259.184C33.6438 258.216 33.4018 257.109 33.4018 255.862ZM42.9938 255.906C42.9938 255.158 42.8471 254.52 42.5538 253.992C42.2604 253.449 41.8644 253.039 41.3658 252.76C40.8671 252.467 40.3318 252.32 39.7598 252.32C39.1878 252.32 38.6598 252.459 38.1758 252.738C37.6918 253.017 37.2958 253.427 36.9878 253.97C36.6944 254.498 36.5478 255.129 36.5478 255.862C36.5478 256.595 36.6944 257.241 36.9878 257.798C37.2958 258.341 37.6918 258.759 38.1758 259.052C38.6744 259.345 39.2024 259.492 39.7598 259.492C40.3318 259.492 40.8671 259.353 41.3658 259.074C41.8644 258.781 42.2604 258.37 42.5538 257.842C42.8471 257.299 42.9938 256.654 42.9938 255.906ZM52.1839 251.704C52.5799 251.059 53.0933 250.553 53.7239 250.186C54.3693 249.819 55.1026 249.636 55.9239 249.636V252.87H55.1099C54.1419 252.87 53.4086 253.097 52.9099 253.552C52.4259 254.007 52.1839 254.799 52.1839 255.928V262H49.1039V249.812H52.1839V251.704ZM64.7525 249.636C66.2045 249.636 67.3778 250.098 68.2725 251.022C69.1671 251.931 69.6145 253.207 69.6145 254.85V262H66.5345V255.268C66.5345 254.3 66.2925 253.559 65.8085 253.046C65.3245 252.518 64.6645 252.254 63.8285 252.254C62.9778 252.254 62.3031 252.518 61.8045 253.046C61.3205 253.559 61.0785 254.3 61.0785 255.268V262H57.9985V249.812H61.0785V251.33C61.4891 250.802 62.0098 250.391 62.6405 250.098C63.2858 249.79 63.9898 249.636 64.7525 249.636ZM94.5276 246.644V262H91.4476V252.012L87.3336 262H85.0016L80.8656 252.012V262H77.7856V246.644H81.2836L86.1676 258.062L91.0516 246.644H94.5276ZM102.985 262.198C101.811 262.198 100.755 261.941 99.8167 261.428C98.878 260.9 98.1374 260.159 97.5947 259.206C97.0667 258.253 96.8027 257.153 96.8027 255.906C96.8027 254.659 97.074 253.559 97.6167 252.606C98.174 251.653 98.9294 250.919 99.8827 250.406C100.836 249.878 101.899 249.614 103.073 249.614C104.246 249.614 105.309 249.878 106.263 250.406C107.216 250.919 107.964 251.653 108.507 252.606C109.064 253.559 109.343 254.659 109.343 255.906C109.343 257.153 109.057 258.253 108.485 259.206C107.927 260.159 107.165 260.9 106.197 261.428C105.243 261.941 104.173 262.198 102.985 262.198ZM102.985 259.514C103.542 259.514 104.063 259.382 104.547 259.118C105.045 258.839 105.441 258.429 105.735 257.886C106.028 257.343 106.175 256.683 106.175 255.906C106.175 254.747 105.867 253.86 105.251 253.244C104.649 252.613 103.909 252.298 103.029 252.298C102.149 252.298 101.408 252.613 100.807 253.244C100.22 253.86 99.9267 254.747 99.9267 255.906C99.9267 257.065 100.213 257.959 100.785 258.59C101.371 259.206 102.105 259.514 102.985 259.514ZM114.682 251.704C115.078 251.059 115.591 250.553 116.222 250.186C116.867 249.819 117.601 249.636 118.422 249.636V252.87H117.608C116.64 252.87 115.907 253.097 115.408 253.552C114.924 254.007 114.682 254.799 114.682 255.928V262H111.602V249.812H114.682V251.704ZM131.827 255.642C131.827 256.082 131.797 256.478 131.739 256.83H122.829C122.902 257.71 123.21 258.399 123.753 258.898C124.295 259.397 124.963 259.646 125.755 259.646C126.899 259.646 127.713 259.155 128.197 258.172H131.519C131.167 259.345 130.492 260.313 129.495 261.076C128.497 261.824 127.273 262.198 125.821 262.198C124.647 262.198 123.591 261.941 122.653 261.428C121.729 260.9 121.003 260.159 120.475 259.206C119.961 258.253 119.705 257.153 119.705 255.906C119.705 254.645 119.961 253.537 120.475 252.584C120.988 251.631 121.707 250.897 122.631 250.384C123.555 249.871 124.618 249.614 125.821 249.614C126.979 249.614 128.013 249.863 128.923 250.362C129.847 250.861 130.558 251.572 131.057 252.496C131.57 253.405 131.827 254.454 131.827 255.642ZM128.637 254.762C128.622 253.97 128.336 253.339 127.779 252.87C127.221 252.386 126.539 252.144 125.733 252.144C124.97 252.144 124.325 252.379 123.797 252.848C123.283 253.303 122.968 253.941 122.851 254.762H128.637Z" fill="#F29C1F"/>
<path d="M7 270H133" stroke="#F29C1F" stroke-width="2"/>
</svg>
