<svg width="857" height="350" viewBox="0 0 857 350" fill="none" xmlns="http://www.w3.org/2000/svg">
<circle r="3.5" transform="matrix(-1 0 0 1 151.5 24.5)" fill="#F9DC41"/>
<circle r="3.5" transform="matrix(-1 0 0 1 151.5 50.5)" fill="#F9DC41"/>
<circle r="3.5" transform="matrix(-1 0 0 1 151.5 76.5)" fill="#F9DC41"/>
<circle r="3.5" transform="matrix(-1 0 0 1 151.5 102.5)" fill="#F9DC41"/>
<circle r="3.5" transform="matrix(-1 0 0 1 151.5 128.5)" fill="#F9DC41"/>
<circle r="3.5" transform="matrix(-1 0 0 1 151.5 154.5)" fill="#F9DC41"/>
<circle r="3.5" transform="matrix(-1 0 0 1 125.5 24.5)" fill="#F9DC41"/>
<circle r="3.5" transform="matrix(-1 0 0 1 125.5 50.5)" fill="#F9DC41"/>
<circle r="3.5" transform="matrix(-1 0 0 1 125.5 76.5)" fill="#F9DC41"/>
<circle r="3.5" transform="matrix(-1 0 0 1 125.5 102.5)" fill="#F9DC41"/>
<circle r="3.5" transform="matrix(-1 0 0 1 125.5 128.5)" fill="#F9DC41"/>
<circle r="3.5" transform="matrix(-1 0 0 1 125.5 154.5)" fill="#F9DC41"/>
<circle r="3.5" transform="matrix(-1 0 0 1 99.5 24.5)" fill="#F9DC41"/>
<circle r="3.5" transform="matrix(-1 0 0 1 99.5 50.5)" fill="#F9DC41"/>
<circle r="3.5" transform="matrix(-1 0 0 1 99.5 76.5)" fill="#F9DC41"/>
<circle r="3.5" transform="matrix(-1 0 0 1 99.5 102.5)" fill="#F9DC41"/>
<circle r="3.5" transform="matrix(-1 0 0 1 99.5 128.5)" fill="#F9DC41"/>
<circle r="3.5" transform="matrix(-1 0 0 1 99.5 154.5)" fill="#F9DC41"/>
<circle r="3.5" transform="matrix(-1 0 0 1 73.5 24.5)" fill="#F9DC41"/>
<circle r="3.5" transform="matrix(-1 0 0 1 73.5 50.5)" fill="#F9DC41"/>
<circle r="3.5" transform="matrix(-1 0 0 1 73.5 76.5)" fill="#F9DC41"/>
<circle r="3.5" transform="matrix(-1 0 0 1 73.5 102.5)" fill="#F9DC41"/>
<circle r="3.5" transform="matrix(-1 0 0 1 73.5 128.5)" fill="#F9DC41"/>
<circle r="3.5" transform="matrix(-1 0 0 1 73.5 154.5)" fill="#F9DC41"/>
<circle r="3.5" transform="matrix(-1 0 0 1 47.5 24.5)" fill="#F9DC41"/>
<circle r="3.5" transform="matrix(-1 0 0 1 47.5 50.5)" fill="#F9DC41"/>
<circle r="3.5" transform="matrix(-1 0 0 1 47.5 76.5)" fill="#F9DC41"/>
<circle r="3.5" transform="matrix(-1 0 0 1 47.5 102.5)" fill="#F9DC41"/>
<circle r="3.5" transform="matrix(-1 0 0 1 47.5 128.5)" fill="#F9DC41"/>
<circle r="3.5" transform="matrix(-1 0 0 1 47.5 154.5)" fill="#F9DC41"/>
<circle r="3.5" transform="matrix(-1 0 0 1 21.5 24.5)" fill="#F9DC41"/>
<circle r="3.5" transform="matrix(-1 0 0 1 21.5 50.5)" fill="#F9DC41"/>
<circle r="3.5" transform="matrix(-1 0 0 1 21.5 76.5)" fill="#F9DC41"/>
<circle r="3.5" transform="matrix(-1 0 0 1 21.5 102.5)" fill="#F9DC41"/>
<circle r="3.5" transform="matrix(-1 0 0 1 21.5 128.5)" fill="#F9DC41"/>
<circle r="3.5" transform="matrix(-1 0 0 1 21.5 154.5)" fill="#F9DC41"/>
<rect width="108" height="108" transform="matrix(-1 0 0 1 176 64)" fill="white"/>
<circle r="2.9019" transform="matrix(1 0 0 -1 746.313 293.18)" fill="#F9DC41"/>
<circle r="2.9019" transform="matrix(1 0 0 -1 746.313 271.623)" fill="#F9DC41"/>
<circle r="2.9019" transform="matrix(1 0 0 -1 746.313 250.066)" fill="#F9DC41"/>
<circle r="2.9019" transform="matrix(1 0 0 -1 746.313 228.509)" fill="#F9DC41"/>
<circle r="2.9019" transform="matrix(1 0 0 -1 767.87 336.294)" fill="#F9DC41"/>
<circle r="2.9019" transform="matrix(1 0 0 -1 767.87 314.737)" fill="#F9DC41"/>
<circle r="2.9019" transform="matrix(1 0 0 -1 767.87 293.18)" fill="#F9DC41"/>
<circle r="2.9019" transform="matrix(1 0 0 -1 767.87 271.623)" fill="#F9DC41"/>
<circle r="2.9019" transform="matrix(1 0 0 -1 767.87 250.066)" fill="#F9DC41"/>
<circle r="2.9019" transform="matrix(1 0 0 -1 767.87 228.509)" fill="#F9DC41"/>
<circle r="2.9019" transform="matrix(1 0 0 -1 789.427 336.294)" fill="#F9DC41"/>
<circle r="2.9019" transform="matrix(1 0 0 -1 789.427 314.737)" fill="#F9DC41"/>
<circle r="2.9019" transform="matrix(1 0 0 -1 789.427 293.18)" fill="#F9DC41"/>
<circle r="2.9019" transform="matrix(1 0 0 -1 789.427 271.623)" fill="#F9DC41"/>
<circle r="2.9019" transform="matrix(1 0 0 -1 789.427 250.066)" fill="#F9DC41"/>
<circle r="2.9019" transform="matrix(1 0 0 -1 789.427 228.509)" fill="#F9DC41"/>
<circle r="2.9019" transform="matrix(1 0 0 -1 810.984 336.294)" fill="#F9DC41"/>
<circle r="2.9019" transform="matrix(1 0 0 -1 810.984 314.737)" fill="#F9DC41"/>
<circle r="2.9019" transform="matrix(1 0 0 -1 810.984 293.18)" fill="#F9DC41"/>
<circle r="2.9019" transform="matrix(1 0 0 -1 810.984 271.623)" fill="#F9DC41"/>
<circle r="2.9019" transform="matrix(1 0 0 -1 810.984 250.066)" fill="#F9DC41"/>
<circle r="2.9019" transform="matrix(1 0 0 -1 810.984 228.509)" fill="#F9DC41"/>
<circle r="2.9019" transform="matrix(1 0 0 -1 832.541 336.294)" fill="#F9DC41"/>
<circle r="2.9019" transform="matrix(1 0 0 -1 832.541 314.737)" fill="#F9DC41"/>
<circle r="2.9019" transform="matrix(1 0 0 -1 832.541 293.18)" fill="#F9DC41"/>
<circle r="2.9019" transform="matrix(1 0 0 -1 832.541 271.623)" fill="#F9DC41"/>
<circle r="2.9019" transform="matrix(1 0 0 -1 832.541 250.066)" fill="#F9DC41"/>
<circle r="2.9019" transform="matrix(1 0 0 -1 854.098 336.294)" fill="#F9DC41"/>
<circle r="2.9019" transform="matrix(1 0 0 -1 854.098 314.737)" fill="#F9DC41"/>
<circle r="2.9019" transform="matrix(1 0 0 -1 854.098 293.18)" fill="#F9DC41"/>
<circle r="2.9019" transform="matrix(1 0 0 -1 854.098 271.623)" fill="#F9DC41"/>
<circle r="2.9019" transform="matrix(1 0 0 -1 854.098 250.066)" fill="#F9DC41"/>
<rect width="89.5443" height="89.5443" transform="matrix(1 0 0 -1 726 303.544)" fill="white"/>
<rect x="105" y="136" width="391" height="20" fill="#8ED7C0"/>
<path d="M147.48 130.224C150.312 130.752 152.64 132.168 154.464 134.472C156.288 136.776 157.2 139.416 157.2 142.392C157.2 145.08 156.528 147.456 155.184 149.52C153.888 151.536 151.992 153.12 149.496 154.272C147 155.424 144.048 156 140.64 156H118.968V105.744H139.704C143.112 105.744 146.04 106.296 148.488 107.4C150.984 108.504 152.856 110.04 154.104 112.008C155.4 113.976 156.048 116.208 156.048 118.704C156.048 121.632 155.256 124.08 153.672 126.048C152.136 128.016 150.072 129.408 147.48 130.224ZM129.048 126.48H138.264C140.664 126.48 142.512 125.952 143.808 124.896C145.104 123.792 145.752 122.232 145.752 120.216C145.752 118.2 145.104 116.64 143.808 115.536C142.512 114.432 140.664 113.88 138.264 113.88H129.048V126.48ZM139.2 147.792C141.648 147.792 143.544 147.216 144.888 146.064C146.28 144.912 146.976 143.28 146.976 141.168C146.976 139.008 146.256 137.328 144.816 136.128C143.376 134.88 141.432 134.256 138.984 134.256H129.048V147.792H139.2ZM175.314 122.304C176.61 120.192 178.29 118.536 180.354 117.336C182.466 116.136 184.866 115.536 187.554 115.536V126.12H184.89C181.722 126.12 179.322 126.864 177.69 128.352C176.106 129.84 175.314 132.432 175.314 136.128V156H165.234V116.112H175.314V122.304ZM231.423 135.192C231.423 136.632 231.327 137.928 231.135 139.08H201.975C202.215 141.96 203.223 144.216 204.999 145.848C206.775 147.48 208.959 148.296 211.551 148.296C215.295 148.296 217.959 146.688 219.543 143.472H230.415C229.263 147.312 227.055 150.48 223.791 152.976C220.527 155.424 216.519 156.648 211.767 156.648C207.927 156.648 204.471 155.808 201.399 154.128C198.375 152.4 195.999 149.976 194.271 146.856C192.591 143.736 191.751 140.136 191.751 136.056C191.751 131.928 192.591 128.304 194.271 125.184C195.951 122.064 198.303 119.664 201.327 117.984C204.351 116.304 207.831 115.464 211.767 115.464C215.559 115.464 218.943 116.28 221.919 117.912C224.943 119.544 227.271 121.872 228.903 124.896C230.583 127.872 231.423 131.304 231.423 135.192ZM220.983 132.312C220.935 129.72 219.999 127.656 218.175 126.12C216.351 124.536 214.119 123.744 211.479 123.744C208.983 123.744 206.871 124.512 205.143 126.048C203.463 127.536 202.431 129.624 202.047 132.312H220.983ZM236.188 135.912C236.188 131.88 236.98 128.304 238.564 125.184C240.197 122.064 242.381 119.664 245.117 117.984C247.901 116.304 250.997 115.464 254.405 115.464C257.381 115.464 259.973 116.064 262.181 117.264C264.437 118.464 266.237 119.976 267.581 121.8V116.112H277.733V156H267.581V150.168C266.285 152.04 264.485 153.6 262.181 154.848C259.925 156.048 257.309 156.648 254.333 156.648C250.973 156.648 247.901 155.784 245.117 154.056C242.381 152.328 240.197 149.904 238.564 146.784C236.98 143.616 236.188 139.992 236.188 135.912ZM267.581 136.056C267.581 133.608 267.101 131.52 266.141 129.792C265.181 128.016 263.885 126.672 262.253 125.76C260.621 124.8 258.869 124.32 256.997 124.32C255.125 124.32 253.397 124.776 251.812 125.688C250.229 126.6 248.933 127.944 247.925 129.72C246.965 131.448 246.485 133.512 246.485 135.912C246.485 138.312 246.965 140.424 247.925 142.248C248.933 144.024 250.229 145.392 251.812 146.352C253.445 147.312 255.173 147.792 256.997 147.792C258.869 147.792 260.621 147.336 262.253 146.424C263.885 145.464 265.181 144.12 266.141 142.392C267.101 140.616 267.581 138.504 267.581 136.056ZM311.193 156L297.657 139.008V156H287.577V102.72H297.657V133.032L311.049 116.112H324.153L306.585 136.128L324.297 156H311.193ZM365.069 124.392H358.085V156H347.861V124.392H343.325V116.112H347.861V114.096C347.861 109.2 349.253 105.6 352.037 103.296C354.821 100.992 359.021 99.912 364.637 100.056V108.552C362.189 108.504 360.485 108.912 359.525 109.776C358.565 110.64 358.085 112.2 358.085 114.456V116.112H365.069V124.392ZM381.681 122.304C382.977 120.192 384.657 118.536 386.721 117.336C388.833 116.136 391.233 115.536 393.921 115.536V126.12H391.257C388.089 126.12 385.689 126.864 384.057 128.352C382.473 129.84 381.681 132.432 381.681 136.128V156H371.601V116.112H381.681V122.304ZM437.79 135.192C437.79 136.632 437.694 137.928 437.502 139.08H408.342C408.582 141.96 409.59 144.216 411.366 145.848C413.142 147.48 415.326 148.296 417.918 148.296C421.662 148.296 424.326 146.688 425.91 143.472H436.782C435.63 147.312 433.422 150.48 430.158 152.976C426.894 155.424 422.886 156.648 418.134 156.648C414.294 156.648 410.838 155.808 407.766 154.128C404.742 152.4 402.366 149.976 400.638 146.856C398.958 143.736 398.118 140.136 398.118 136.056C398.118 131.928 398.958 128.304 400.638 125.184C402.318 122.064 404.67 119.664 407.694 117.984C410.718 116.304 414.198 115.464 418.134 115.464C421.926 115.464 425.31 116.28 428.286 117.912C431.31 119.544 433.638 121.872 435.27 124.896C436.95 127.872 437.79 131.304 437.79 135.192ZM427.35 132.312C427.302 129.72 426.366 127.656 424.542 126.12C422.718 124.536 420.486 123.744 417.846 123.744C415.35 123.744 413.238 124.512 411.51 126.048C409.83 127.536 408.798 129.624 408.414 132.312H427.35ZM482.228 135.192C482.228 136.632 482.132 137.928 481.94 139.08H452.78C453.02 141.96 454.028 144.216 455.804 145.848C457.58 147.48 459.764 148.296 462.356 148.296C466.1 148.296 468.764 146.688 470.348 143.472H481.22C480.068 147.312 477.86 150.48 474.596 152.976C471.332 155.424 467.324 156.648 462.572 156.648C458.732 156.648 455.276 155.808 452.204 154.128C449.18 152.4 446.804 149.976 445.076 146.856C443.396 143.736 442.556 140.136 442.556 136.056C442.556 131.928 443.396 128.304 445.076 125.184C446.756 122.064 449.108 119.664 452.132 117.984C455.156 116.304 458.636 115.464 462.572 115.464C466.364 115.464 469.748 116.28 472.724 117.912C475.748 119.544 478.076 121.872 479.708 124.896C481.388 127.872 482.228 131.304 482.228 135.192ZM471.788 132.312C471.74 129.72 470.804 127.656 468.98 126.12C467.156 124.536 464.924 123.744 462.284 123.744C459.788 123.744 457.676 124.512 455.948 126.048C454.268 127.536 453.236 129.624 452.852 132.312H471.788ZM525.029 124.392H518.045V156H507.821V124.392H503.285V116.112H507.821V114.096C507.821 109.2 509.213 105.6 511.997 103.296C514.781 100.992 518.981 99.912 524.597 100.056V108.552C522.149 108.504 520.445 108.912 519.485 109.776C518.525 110.64 518.045 112.2 518.045 114.456V116.112H525.029V124.392ZM541.642 122.304C542.938 120.192 544.618 118.536 546.682 117.336C548.794 116.136 551.194 115.536 553.882 115.536V126.12H551.218C548.05 126.12 545.65 126.864 544.018 128.352C542.434 129.84 541.642 132.432 541.642 136.128V156H531.562V116.112H541.642V122.304ZM578.383 156.648C574.543 156.648 571.087 155.808 568.015 154.128C564.943 152.4 562.519 149.976 560.743 146.856C559.015 143.736 558.151 140.136 558.151 136.056C558.151 131.976 559.039 128.376 560.815 125.256C562.639 122.136 565.111 119.736 568.231 118.056C571.351 116.328 574.831 115.464 578.671 115.464C582.511 115.464 585.991 116.328 589.111 118.056C592.231 119.736 594.679 122.136 596.455 125.256C598.279 128.376 599.191 131.976 599.191 136.056C599.191 140.136 598.255 143.736 596.383 146.856C594.559 149.976 592.063 152.4 588.895 154.128C585.775 155.808 582.271 156.648 578.383 156.648ZM578.383 147.864C580.207 147.864 581.911 147.432 583.495 146.568C585.127 145.656 586.423 144.312 587.383 142.536C588.343 140.76 588.823 138.6 588.823 136.056C588.823 132.264 587.815 129.36 585.799 127.344C583.831 125.28 581.407 124.248 578.527 124.248C575.647 124.248 573.223 125.28 571.255 127.344C569.335 129.36 568.375 132.264 568.375 136.056C568.375 139.848 569.311 142.776 571.183 144.84C573.103 146.856 575.503 147.864 578.383 147.864ZM656.121 115.536C661.017 115.536 664.953 117.048 667.929 120.072C670.953 123.048 672.465 127.224 672.465 132.6V156H662.385V133.968C662.385 130.848 661.593 128.472 660.009 126.84C658.425 125.16 656.265 124.32 653.529 124.32C650.793 124.32 648.609 125.16 646.977 126.84C645.393 128.472 644.601 130.848 644.601 133.968V156H634.521V133.968C634.521 130.848 633.729 128.472 632.145 126.84C630.561 125.16 628.401 124.32 625.665 124.32C622.881 124.32 620.673 125.16 619.041 126.84C617.457 128.472 616.665 130.848 616.665 133.968V156H606.585V116.112H616.665V120.936C617.961 119.256 619.617 117.936 621.633 116.976C623.697 116.016 625.953 115.536 628.401 115.536C631.521 115.536 634.305 116.208 636.753 117.552C639.201 118.848 641.097 120.72 642.441 123.168C643.737 120.864 645.609 119.016 648.057 117.624C650.553 116.232 653.241 115.536 656.121 115.536ZM710.923 124.392V143.688C710.923 145.032 711.235 146.016 711.859 146.64C712.531 147.216 713.635 147.504 715.171 147.504H719.851V156H713.515C705.019 156 700.771 151.872 700.771 143.616V124.392H696.019V116.112H700.771V106.248H710.923V116.112H719.851V124.392H710.923ZM749.565 115.536C752.589 115.536 755.277 116.208 757.629 117.552C759.981 118.848 761.805 120.792 763.101 123.384C764.445 125.928 765.117 129 765.117 132.6V156H755.037V133.968C755.037 130.8 754.245 128.376 752.661 126.696C751.077 124.968 748.917 124.104 746.181 124.104C743.397 124.104 741.189 124.968 739.557 126.696C737.973 128.376 737.181 130.8 737.181 133.968V156H727.101V102.72H737.181V121.08C738.477 119.352 740.205 118.008 742.365 117.048C744.525 116.04 746.925 115.536 749.565 115.536ZM811.782 135.192C811.782 136.632 811.686 137.928 811.494 139.08H782.334C782.574 141.96 783.582 144.216 785.358 145.848C787.134 147.48 789.318 148.296 791.91 148.296C795.654 148.296 798.318 146.688 799.902 143.472H810.774C809.622 147.312 807.414 150.48 804.15 152.976C800.886 155.424 796.878 156.648 792.126 156.648C788.286 156.648 784.83 155.808 781.758 154.128C778.734 152.4 776.358 149.976 774.63 146.856C772.95 143.736 772.11 140.136 772.11 136.056C772.11 131.928 772.95 128.304 774.63 125.184C776.31 122.064 778.662 119.664 781.686 117.984C784.71 116.304 788.19 115.464 792.126 115.464C795.918 115.464 799.302 116.28 802.278 117.912C805.302 119.544 807.63 121.872 809.262 124.896C810.942 127.872 811.782 131.304 811.782 135.192ZM801.342 132.312C801.294 129.72 800.358 127.656 798.534 126.12C796.71 124.536 794.478 123.744 791.838 123.744C789.342 123.744 787.23 124.512 785.502 126.048C783.822 127.536 782.79 129.624 782.406 132.312H801.342ZM137.256 232.392H130.272V264H120.048V232.392H115.512V224.112H120.048V222.096C120.048 217.2 121.44 213.6 124.224 211.296C127.008 208.992 131.208 207.912 136.824 208.056V216.552C134.376 216.504 132.672 216.912 131.712 217.776C130.752 218.64 130.272 220.2 130.272 222.456V224.112H137.256V232.392ZM148.9 219.36C147.124 219.36 145.636 218.808 144.436 217.704C143.284 216.552 142.708 215.136 142.708 213.456C142.708 211.776 143.284 210.384 144.436 209.28C145.636 208.128 147.124 207.552 148.9 207.552C150.676 207.552 152.14 208.128 153.292 209.28C154.492 210.384 155.092 211.776 155.092 213.456C155.092 215.136 154.492 216.552 153.292 217.704C152.14 218.808 150.676 219.36 148.9 219.36ZM153.868 224.112V264H143.788V224.112H153.868ZM185.931 223.536C190.683 223.536 194.523 225.048 197.451 228.072C200.379 231.048 201.843 235.224 201.843 240.6V264H191.763V241.968C191.763 238.8 190.971 236.376 189.387 234.696C187.803 232.968 185.643 232.104 182.907 232.104C180.123 232.104 177.915 232.968 176.283 234.696C174.699 236.376 173.907 238.8 173.907 241.968V264H163.827V224.112H173.907V229.08C175.251 227.352 176.955 226.008 179.019 225.048C181.131 224.04 183.435 223.536 185.931 223.536ZM208.837 243.912C208.837 239.88 209.629 236.304 211.213 233.184C212.845 230.064 215.029 227.664 217.765 225.984C220.549 224.304 223.645 223.464 227.053 223.464C230.029 223.464 232.621 224.064 234.829 225.264C237.085 226.464 238.885 227.976 240.229 229.8V224.112H250.381V264H240.229V258.168C238.933 260.04 237.133 261.6 234.829 262.848C232.573 264.048 229.957 264.648 226.981 264.648C223.621 264.648 220.549 263.784 217.765 262.056C215.029 260.328 212.845 257.904 211.213 254.784C209.629 251.616 208.837 247.992 208.837 243.912ZM240.229 244.056C240.229 241.608 239.749 239.52 238.789 237.792C237.829 236.016 236.533 234.672 234.901 233.76C233.269 232.8 231.517 232.32 229.645 232.32C227.773 232.32 226.045 232.776 224.461 233.688C222.877 234.6 221.581 235.944 220.573 237.72C219.613 239.448 219.133 241.512 219.133 243.912C219.133 246.312 219.613 248.424 220.573 250.248C221.581 252.024 222.877 253.392 224.461 254.352C226.093 255.312 227.821 255.792 229.645 255.792C231.517 255.792 233.269 255.336 234.901 254.424C236.533 253.464 237.829 252.12 238.789 250.392C239.749 248.616 240.229 246.504 240.229 244.056ZM282.33 223.536C287.082 223.536 290.922 225.048 293.85 228.072C296.778 231.048 298.242 235.224 298.242 240.6V264H288.162V241.968C288.162 238.8 287.37 236.376 285.786 234.696C284.202 232.968 282.042 232.104 279.306 232.104C276.522 232.104 274.314 232.968 272.682 234.696C271.098 236.376 270.306 238.8 270.306 241.968V264H260.226V224.112H270.306V229.08C271.65 227.352 273.354 226.008 275.418 225.048C277.53 224.04 279.834 223.536 282.33 223.536ZM305.235 244.056C305.235 239.928 306.075 236.328 307.755 233.256C309.435 230.136 311.763 227.736 314.739 226.056C317.715 224.328 321.123 223.464 324.963 223.464C329.907 223.464 333.987 224.712 337.203 227.208C340.467 229.656 342.651 233.112 343.755 237.576H332.883C332.307 235.848 331.323 234.504 329.931 233.544C328.587 232.536 326.907 232.032 324.891 232.032C322.011 232.032 319.731 233.088 318.051 235.2C316.371 237.264 315.531 240.216 315.531 244.056C315.531 247.848 316.371 250.8 318.051 252.912C319.731 254.976 322.011 256.008 324.891 256.008C328.971 256.008 331.635 254.184 332.883 250.536H343.755C342.651 254.856 340.467 258.288 337.203 260.832C333.939 263.376 329.859 264.648 324.963 264.648C321.123 264.648 317.715 263.808 314.739 262.128C311.763 260.4 309.435 258 307.755 254.928C306.075 251.808 305.235 248.184 305.235 244.056ZM356.252 219.36C354.476 219.36 352.988 218.808 351.788 217.704C350.636 216.552 350.06 215.136 350.06 213.456C350.06 211.776 350.636 210.384 351.788 209.28C352.988 208.128 354.476 207.552 356.252 207.552C358.028 207.552 359.492 208.128 360.644 209.28C361.844 210.384 362.444 211.776 362.444 213.456C362.444 215.136 361.844 216.552 360.644 217.704C359.492 218.808 358.028 219.36 356.252 219.36ZM361.22 224.112V264H351.14V224.112H361.22ZM368.587 243.912C368.587 239.88 369.379 236.304 370.963 233.184C372.595 230.064 374.779 227.664 377.515 225.984C380.299 224.304 383.395 223.464 386.803 223.464C389.779 223.464 392.371 224.064 394.579 225.264C396.835 226.464 398.635 227.976 399.979 229.8V224.112H410.131V264H399.979V258.168C398.683 260.04 396.883 261.6 394.579 262.848C392.323 264.048 389.707 264.648 386.731 264.648C383.371 264.648 380.299 263.784 377.515 262.056C374.779 260.328 372.595 257.904 370.963 254.784C369.379 251.616 368.587 247.992 368.587 243.912ZM399.979 244.056C399.979 241.608 399.499 239.52 398.539 237.792C397.579 236.016 396.283 234.672 394.651 233.76C393.019 232.8 391.267 232.32 389.395 232.32C387.523 232.32 385.795 232.776 384.211 233.688C382.627 234.6 381.331 235.944 380.323 237.72C379.363 239.448 378.883 241.512 378.883 243.912C378.883 246.312 379.363 248.424 380.323 250.248C381.331 252.024 382.627 253.392 384.211 254.352C385.843 255.312 387.571 255.792 389.395 255.792C391.267 255.792 393.019 255.336 394.651 254.424C396.283 253.464 397.579 252.12 398.539 250.392C399.499 248.616 399.979 246.504 399.979 244.056ZM430.056 210.72V264H419.976V210.72H430.056ZM467.251 229.944C468.547 228.024 470.323 226.464 472.579 225.264C474.883 224.064 477.499 223.464 480.427 223.464C483.835 223.464 486.907 224.304 489.643 225.984C492.427 227.664 494.611 230.064 496.195 233.184C497.827 236.256 498.643 239.832 498.643 243.912C498.643 247.992 497.827 251.616 496.195 254.784C494.611 257.904 492.427 260.328 489.643 262.056C486.907 263.784 483.835 264.648 480.427 264.648C477.451 264.648 474.835 264.072 472.579 262.92C470.371 261.72 468.595 260.184 467.251 258.312V264H457.171V210.72H467.251V229.944ZM488.347 243.912C488.347 241.512 487.843 239.448 486.835 237.72C485.875 235.944 484.579 234.6 482.947 233.688C481.363 232.776 479.635 232.32 477.763 232.32C475.939 232.32 474.211 232.8 472.579 233.76C470.995 234.672 469.699 236.016 468.691 237.792C467.731 239.568 467.251 241.656 467.251 244.056C467.251 246.456 467.731 248.544 468.691 250.32C469.699 252.096 470.995 253.464 472.579 254.424C474.211 255.336 475.939 255.792 477.763 255.792C479.635 255.792 481.363 255.312 482.947 254.352C484.579 253.392 485.875 252.024 486.835 250.248C487.843 248.472 488.347 246.36 488.347 243.912ZM543.624 224.112V264H533.472V258.96C532.176 260.688 530.472 262.056 528.36 263.064C526.296 264.024 524.04 264.504 521.592 264.504C518.472 264.504 515.712 263.856 513.312 262.56C510.912 261.216 509.016 259.272 507.624 256.728C506.28 254.136 505.608 251.064 505.608 247.512V224.112H515.688V246.072C515.688 249.24 516.48 251.688 518.064 253.416C519.648 255.096 521.808 255.936 524.544 255.936C527.328 255.936 529.512 255.096 531.096 253.416C532.68 251.688 533.472 249.24 533.472 246.072V224.112H543.624ZM563.65 230.304C564.946 228.192 566.626 226.536 568.69 225.336C570.802 224.136 573.202 223.536 575.89 223.536V234.12H573.226C570.058 234.12 567.658 234.864 566.026 236.352C564.442 237.84 563.65 240.432 563.65 244.128V264H553.57V224.112H563.65V230.304ZM580.087 243.912C580.087 239.88 580.879 236.304 582.463 233.184C584.095 230.064 586.303 227.664 589.087 225.984C591.871 224.304 594.967 223.464 598.375 223.464C600.967 223.464 603.439 224.04 605.791 225.192C608.143 226.296 610.015 227.784 611.407 229.656V210.72H621.631V264H611.407V258.096C610.159 260.064 608.407 261.648 606.151 262.848C603.895 264.048 601.279 264.648 598.303 264.648C594.943 264.648 591.871 263.784 589.087 262.056C586.303 260.328 584.095 257.904 582.463 254.784C580.879 251.616 580.087 247.992 580.087 243.912ZM611.479 244.056C611.479 241.608 610.999 239.52 610.039 237.792C609.079 236.016 607.783 234.672 606.151 233.76C604.519 232.8 602.767 232.32 600.895 232.32C599.023 232.32 597.295 232.776 595.711 233.688C594.127 234.6 592.831 235.944 591.823 237.72C590.863 239.448 590.383 241.512 590.383 243.912C590.383 246.312 590.863 248.424 591.823 250.248C592.831 252.024 594.127 253.392 595.711 254.352C597.343 255.312 599.071 255.792 600.895 255.792C602.767 255.792 604.519 255.336 606.151 254.424C607.783 253.464 609.079 252.12 610.039 250.392C610.999 248.616 611.479 246.504 611.479 244.056ZM668.556 243.192C668.556 244.632 668.46 245.928 668.268 247.08H639.108C639.348 249.96 640.356 252.216 642.132 253.848C643.908 255.48 646.092 256.296 648.684 256.296C652.428 256.296 655.092 254.688 656.676 251.472H667.548C666.396 255.312 664.188 258.48 660.924 260.976C657.66 263.424 653.652 264.648 648.9 264.648C645.06 264.648 641.604 263.808 638.532 262.128C635.508 260.4 633.132 257.976 631.404 254.856C629.724 251.736 628.884 248.136 628.884 244.056C628.884 239.928 629.724 236.304 631.404 233.184C633.084 230.064 635.436 227.664 638.46 225.984C641.484 224.304 644.964 223.464 648.9 223.464C652.692 223.464 656.076 224.28 659.052 225.912C662.076 227.544 664.404 229.872 666.036 232.896C667.716 235.872 668.556 239.304 668.556 243.192ZM658.116 240.312C658.068 237.72 657.132 235.656 655.308 234.12C653.484 232.536 651.252 231.744 648.612 231.744C646.116 231.744 644.004 232.512 642.276 234.048C640.596 235.536 639.564 237.624 639.18 240.312H658.116ZM698.017 223.536C702.769 223.536 706.609 225.048 709.537 228.072C712.465 231.048 713.929 235.224 713.929 240.6V264H703.849V241.968C703.849 238.8 703.057 236.376 701.473 234.696C699.889 232.968 697.729 232.104 694.993 232.104C692.209 232.104 690.001 232.968 688.369 234.696C686.785 236.376 685.993 238.8 685.993 241.968V264H675.913V224.112H685.993V229.08C687.337 227.352 689.041 226.008 691.105 225.048C693.217 224.04 695.521 223.536 698.017 223.536ZM738.779 264.648C735.515 264.648 732.587 264.072 729.995 262.92C727.403 261.72 725.339 260.112 723.803 258.096C722.315 256.08 721.499 253.848 721.355 251.4H731.507C731.699 252.936 732.443 254.208 733.739 255.216C735.083 256.224 736.739 256.728 738.707 256.728C740.627 256.728 742.115 256.344 743.171 255.576C744.275 254.808 744.827 253.824 744.827 252.624C744.827 251.328 744.155 250.368 742.811 249.744C741.515 249.072 739.427 248.352 736.547 247.584C733.571 246.864 731.123 246.12 729.203 245.352C727.331 244.584 725.699 243.408 724.307 241.824C722.963 240.24 722.291 238.104 722.291 235.416C722.291 233.208 722.915 231.192 724.163 229.368C725.459 227.544 727.283 226.104 729.635 225.048C732.035 223.992 734.843 223.464 738.059 223.464C742.811 223.464 746.603 224.664 749.435 227.064C752.267 229.416 753.827 232.608 754.115 236.64H744.467C744.323 235.056 743.651 233.808 742.451 232.896C741.299 231.936 739.739 231.456 737.771 231.456C735.947 231.456 734.531 231.792 733.523 232.464C732.563 233.136 732.083 234.072 732.083 235.272C732.083 236.616 732.755 237.648 734.099 238.368C735.443 239.04 737.531 239.736 740.363 240.456C743.243 241.176 745.619 241.92 747.491 242.688C749.363 243.456 750.971 244.656 752.315 246.288C753.707 247.872 754.427 249.984 754.475 252.624C754.475 254.928 753.827 256.992 752.531 258.816C751.283 260.64 749.459 262.08 747.059 263.136C744.707 264.144 741.947 264.648 738.779 264.648Z" fill="#363C63"/>
<path d="M126.9 340L122.9 333.05H120.725V340H117.875V322.625H123.875C125.208 322.625 126.333 322.858 127.25 323.325C128.183 323.792 128.875 324.417 129.325 325.2C129.792 325.983 130.025 326.858 130.025 327.825C130.025 328.958 129.692 329.992 129.025 330.925C128.375 331.842 127.367 332.467 126 332.8L130.3 340H126.9ZM120.725 330.775H123.875C124.942 330.775 125.742 330.508 126.275 329.975C126.825 329.442 127.1 328.725 127.1 327.825C127.1 326.925 126.833 326.225 126.3 325.725C125.767 325.208 124.958 324.95 123.875 324.95H120.725V330.775ZM146.296 332.775C146.296 333.292 146.263 333.758 146.196 334.175H135.671C135.754 335.275 136.163 336.158 136.896 336.825C137.629 337.492 138.529 337.825 139.596 337.825C141.129 337.825 142.213 337.183 142.846 335.9H145.921C145.504 337.167 144.746 338.208 143.646 339.025C142.563 339.825 141.213 340.225 139.596 340.225C138.279 340.225 137.096 339.933 136.046 339.35C135.013 338.75 134.196 337.917 133.596 336.85C133.013 335.767 132.721 334.517 132.721 333.1C132.721 331.683 133.004 330.442 133.571 329.375C134.154 328.292 134.963 327.458 135.996 326.875C137.046 326.292 138.246 326 139.596 326C140.896 326 142.054 326.283 143.071 326.85C144.088 327.417 144.879 328.217 145.446 329.25C146.013 330.267 146.296 331.442 146.296 332.775ZM143.321 331.875C143.304 330.825 142.929 329.983 142.196 329.35C141.463 328.717 140.554 328.4 139.471 328.4C138.488 328.4 137.646 328.717 136.946 329.35C136.246 329.967 135.829 330.808 135.696 331.875H143.321ZM154.876 328.55H152.326V340H149.451V328.55H147.826V326.225H149.451V325.25C149.451 323.667 149.867 322.517 150.701 321.8C151.551 321.067 152.876 320.7 154.676 320.7V323.075C153.809 323.075 153.201 323.242 152.851 323.575C152.501 323.892 152.326 324.45 152.326 325.25V326.225H154.876V328.55ZM158.851 324.4C158.335 324.4 157.901 324.225 157.551 323.875C157.201 323.525 157.026 323.092 157.026 322.575C157.026 322.058 157.201 321.625 157.551 321.275C157.901 320.925 158.335 320.75 158.851 320.75C159.351 320.75 159.776 320.925 160.126 321.275C160.476 321.625 160.651 322.058 160.651 322.575C160.651 323.092 160.476 323.525 160.126 323.875C159.776 324.225 159.351 324.4 158.851 324.4ZM160.251 326.225V340H157.401V326.225H160.251ZM170.943 326C172.026 326 172.993 326.225 173.843 326.675C174.71 327.125 175.385 327.792 175.868 328.675C176.351 329.558 176.593 330.625 176.593 331.875V340H173.768V332.3C173.768 331.067 173.46 330.125 172.843 329.475C172.226 328.808 171.385 328.475 170.318 328.475C169.251 328.475 168.401 328.808 167.768 329.475C167.151 330.125 166.843 331.067 166.843 332.3V340H163.993V326.225H166.843V327.8C167.31 327.233 167.901 326.792 168.618 326.475C169.351 326.158 170.126 326 170.943 326ZM179.279 333.05C179.279 331.667 179.562 330.442 180.129 329.375C180.712 328.308 181.495 327.483 182.479 326.9C183.479 326.3 184.579 326 185.779 326C186.862 326 187.804 326.217 188.604 326.65C189.42 327.067 190.07 327.592 190.554 328.225V326.225H193.429V340H190.554V337.95C190.07 338.6 189.412 339.142 188.579 339.575C187.745 340.008 186.795 340.225 185.729 340.225C184.545 340.225 183.462 339.925 182.479 339.325C181.495 338.708 180.712 337.858 180.129 336.775C179.562 335.675 179.279 334.433 179.279 333.05ZM190.554 333.1C190.554 332.15 190.354 331.325 189.954 330.625C189.57 329.925 189.062 329.392 188.429 329.025C187.795 328.658 187.112 328.475 186.379 328.475C185.645 328.475 184.962 328.658 184.329 329.025C183.695 329.375 183.179 329.9 182.779 330.6C182.395 331.283 182.204 332.1 182.204 333.05C182.204 334 182.395 334.833 182.779 335.55C183.179 336.267 183.695 336.817 184.329 337.2C184.979 337.567 185.662 337.75 186.379 337.75C187.112 337.75 187.795 337.567 188.429 337.2C189.062 336.833 189.57 336.3 189.954 335.6C190.354 334.883 190.554 334.05 190.554 333.1ZM204.122 326C205.205 326 206.172 326.225 207.022 326.675C207.889 327.125 208.564 327.792 209.047 328.675C209.53 329.558 209.772 330.625 209.772 331.875V340H206.947V332.3C206.947 331.067 206.639 330.125 206.022 329.475C205.405 328.808 204.564 328.475 203.497 328.475C202.43 328.475 201.58 328.808 200.947 329.475C200.33 330.125 200.022 331.067 200.022 332.3V340H197.172V326.225H200.022V327.8C200.489 327.233 201.08 326.792 201.797 326.475C202.53 326.158 203.305 326 204.122 326ZM212.457 333.1C212.457 331.683 212.741 330.442 213.307 329.375C213.891 328.292 214.691 327.458 215.707 326.875C216.724 326.292 217.891 326 219.207 326C220.874 326 222.249 326.4 223.332 327.2C224.432 327.983 225.174 329.108 225.557 330.575H222.482C222.232 329.892 221.832 329.358 221.282 328.975C220.732 328.592 220.041 328.4 219.207 328.4C218.041 328.4 217.107 328.817 216.407 329.65C215.724 330.467 215.382 331.617 215.382 333.1C215.382 334.583 215.724 335.742 216.407 336.575C217.107 337.408 218.041 337.825 219.207 337.825C220.857 337.825 221.949 337.1 222.482 335.65H225.557C225.157 337.05 224.407 338.167 223.307 339C222.207 339.817 220.841 340.225 219.207 340.225C217.891 340.225 216.724 339.933 215.707 339.35C214.691 338.75 213.891 337.917 213.307 336.85C212.741 335.767 212.457 334.517 212.457 333.1ZM241.022 332.775C241.022 333.292 240.989 333.758 240.922 334.175H230.397C230.481 335.275 230.889 336.158 231.622 336.825C232.356 337.492 233.256 337.825 234.322 337.825C235.856 337.825 236.939 337.183 237.572 335.9H240.647C240.231 337.167 239.472 338.208 238.372 339.025C237.289 339.825 235.939 340.225 234.322 340.225C233.006 340.225 231.822 339.933 230.772 339.35C229.739 338.75 228.922 337.917 228.322 336.85C227.739 335.767 227.447 334.517 227.447 333.1C227.447 331.683 227.731 330.442 228.297 329.375C228.881 328.292 229.689 327.458 230.722 326.875C231.772 326.292 232.972 326 234.322 326C235.622 326 236.781 326.283 237.797 326.85C238.814 327.417 239.606 328.217 240.172 329.25C240.739 330.267 241.022 331.442 241.022 332.775ZM238.047 331.875C238.031 330.825 237.656 329.983 236.922 329.35C236.189 328.717 235.281 328.4 234.197 328.4C233.214 328.4 232.372 328.717 231.672 329.35C230.972 329.967 230.556 330.808 230.422 331.875H238.047ZM249.371 331.275C249.371 329.575 249.763 328.05 250.546 326.7C251.346 325.35 252.421 324.3 253.771 323.55C255.138 322.783 256.63 322.4 258.246 322.4C260.096 322.4 261.738 322.858 263.171 323.775C264.621 324.675 265.671 325.958 266.321 327.625H262.896C262.446 326.708 261.821 326.025 261.021 325.575C260.221 325.125 259.296 324.9 258.246 324.9C257.096 324.9 256.071 325.158 255.171 325.675C254.271 326.192 253.563 326.933 253.046 327.9C252.546 328.867 252.296 329.992 252.296 331.275C252.296 332.558 252.546 333.683 253.046 334.65C253.563 335.617 254.271 336.367 255.171 336.9C256.071 337.417 257.096 337.675 258.246 337.675C259.296 337.675 260.221 337.45 261.021 337C261.821 336.55 262.446 335.867 262.896 334.95H266.321C265.671 336.617 264.621 337.9 263.171 338.8C261.738 339.7 260.096 340.15 258.246 340.15C256.613 340.15 255.121 339.775 253.771 339.025C252.421 338.258 251.346 337.2 250.546 335.85C249.763 334.5 249.371 332.975 249.371 331.275ZM275.632 340.225C274.332 340.225 273.157 339.933 272.107 339.35C271.057 338.75 270.232 337.917 269.632 336.85C269.032 335.767 268.732 334.517 268.732 333.1C268.732 331.7 269.041 330.458 269.657 329.375C270.274 328.292 271.116 327.458 272.182 326.875C273.249 326.292 274.441 326 275.757 326C277.074 326 278.266 326.292 279.332 326.875C280.399 327.458 281.241 328.292 281.857 329.375C282.474 330.458 282.782 331.7 282.782 333.1C282.782 334.5 282.466 335.742 281.832 336.825C281.199 337.908 280.332 338.75 279.232 339.35C278.149 339.933 276.949 340.225 275.632 340.225ZM275.632 337.75C276.366 337.75 277.049 337.575 277.682 337.225C278.332 336.875 278.857 336.35 279.257 335.65C279.657 334.95 279.857 334.1 279.857 333.1C279.857 332.1 279.666 331.258 279.282 330.575C278.899 329.875 278.391 329.35 277.757 329C277.124 328.65 276.441 328.475 275.707 328.475C274.974 328.475 274.291 328.65 273.657 329C273.041 329.35 272.549 329.875 272.182 330.575C271.816 331.258 271.632 332.1 271.632 333.1C271.632 334.583 272.007 335.733 272.757 336.55C273.524 337.35 274.482 337.75 275.632 337.75ZM288.45 321.5V340H285.6V321.5H288.45ZM295.041 321.5V340H292.191V321.5H295.041ZM311.408 332.775C311.408 333.292 311.375 333.758 311.308 334.175H300.783C300.867 335.275 301.275 336.158 302.008 336.825C302.742 337.492 303.642 337.825 304.708 337.825C306.242 337.825 307.325 337.183 307.958 335.9H311.033C310.617 337.167 309.858 338.208 308.758 339.025C307.675 339.825 306.325 340.225 304.708 340.225C303.392 340.225 302.208 339.933 301.158 339.35C300.125 338.75 299.308 337.917 298.708 336.85C298.125 335.767 297.833 334.517 297.833 333.1C297.833 331.683 298.117 330.442 298.683 329.375C299.267 328.292 300.075 327.458 301.108 326.875C302.158 326.292 303.358 326 304.708 326C306.008 326 307.167 326.283 308.183 326.85C309.2 327.417 309.992 328.217 310.558 329.25C311.125 330.267 311.408 331.442 311.408 332.775ZM308.433 331.875C308.417 330.825 308.042 329.983 307.308 329.35C306.575 328.717 305.667 328.4 304.583 328.4C303.6 328.4 302.758 328.717 302.058 329.35C301.358 329.967 300.942 330.808 300.808 331.875H308.433ZM319.763 326C320.83 326 321.771 326.217 322.588 326.65C323.421 327.067 324.071 327.592 324.538 328.225V326.225H327.413V340.225C327.413 341.492 327.146 342.617 326.613 343.6C326.08 344.6 325.305 345.383 324.288 345.95C323.288 346.517 322.088 346.8 320.688 346.8C318.821 346.8 317.271 346.358 316.038 345.475C314.805 344.608 314.105 343.425 313.938 341.925H316.763C316.98 342.642 317.438 343.217 318.138 343.65C318.855 344.1 319.705 344.325 320.688 344.325C321.838 344.325 322.763 343.975 323.463 343.275C324.18 342.575 324.538 341.558 324.538 340.225V337.925C324.055 338.575 323.396 339.125 322.563 339.575C321.746 340.008 320.813 340.225 319.763 340.225C318.563 340.225 317.463 339.925 316.463 339.325C315.48 338.708 314.696 337.858 314.113 336.775C313.546 335.675 313.263 334.433 313.263 333.05C313.263 331.667 313.546 330.442 314.113 329.375C314.696 328.308 315.48 327.483 316.463 326.9C317.463 326.3 318.563 326 319.763 326ZM324.538 333.1C324.538 332.15 324.338 331.325 323.938 330.625C323.555 329.925 323.046 329.392 322.413 329.025C321.78 328.658 321.096 328.475 320.363 328.475C319.63 328.475 318.946 328.658 318.313 329.025C317.68 329.375 317.163 329.9 316.763 330.6C316.38 331.283 316.188 332.1 316.188 333.05C316.188 334 316.38 334.833 316.763 335.55C317.163 336.267 317.68 336.817 318.313 337.2C318.963 337.567 319.646 337.75 320.363 337.75C321.096 337.75 321.78 337.567 322.413 337.2C323.046 336.833 323.555 336.3 323.938 335.6C324.338 334.883 324.538 334.05 324.538 333.1ZM343.781 332.775C343.781 333.292 343.748 333.758 343.681 334.175H333.156C333.24 335.275 333.648 336.158 334.381 336.825C335.115 337.492 336.015 337.825 337.081 337.825C338.615 337.825 339.698 337.183 340.331 335.9H343.406C342.99 337.167 342.231 338.208 341.131 339.025C340.048 339.825 338.698 340.225 337.081 340.225C335.765 340.225 334.581 339.933 333.531 339.35C332.498 338.75 331.681 337.917 331.081 336.85C330.498 335.767 330.206 334.517 330.206 333.1C330.206 331.683 330.49 330.442 331.056 329.375C331.64 328.292 332.448 327.458 333.481 326.875C334.531 326.292 335.731 326 337.081 326C338.381 326 339.54 326.283 340.556 326.85C341.573 327.417 342.365 328.217 342.931 329.25C343.498 330.267 343.781 331.442 343.781 332.775ZM340.806 331.875C340.79 330.825 340.415 329.983 339.681 329.35C338.948 328.717 338.04 328.4 336.956 328.4C335.973 328.4 335.131 328.717 334.431 329.35C333.731 329.967 333.315 330.808 333.181 331.875H340.806ZM355.93 337.7H361.805V340H353.08V322.625H355.93V337.7ZM370.163 340.225C368.863 340.225 367.688 339.933 366.638 339.35C365.588 338.75 364.763 337.917 364.163 336.85C363.563 335.767 363.263 334.517 363.263 333.1C363.263 331.7 363.572 330.458 364.188 329.375C364.805 328.292 365.647 327.458 366.713 326.875C367.78 326.292 368.972 326 370.288 326C371.605 326 372.797 326.292 373.863 326.875C374.93 327.458 375.772 328.292 376.388 329.375C377.005 330.458 377.313 331.7 377.313 333.1C377.313 334.5 376.997 335.742 376.363 336.825C375.73 337.908 374.863 338.75 373.763 339.35C372.68 339.933 371.48 340.225 370.163 340.225ZM370.163 337.75C370.897 337.75 371.58 337.575 372.213 337.225C372.863 336.875 373.388 336.35 373.788 335.65C374.188 334.95 374.388 334.1 374.388 333.1C374.388 332.1 374.197 331.258 373.813 330.575C373.43 329.875 372.922 329.35 372.288 329C371.655 328.65 370.972 328.475 370.238 328.475C369.505 328.475 368.822 328.65 368.188 329C367.572 329.35 367.08 329.875 366.713 330.575C366.347 331.258 366.163 332.1 366.163 333.1C366.163 334.583 366.538 335.733 367.288 336.55C368.055 337.35 369.013 337.75 370.163 337.75ZM379.181 333.05C379.181 331.667 379.464 330.442 380.031 329.375C380.614 328.308 381.398 327.483 382.381 326.9C383.381 326.3 384.481 326 385.681 326C386.764 326 387.706 326.217 388.506 326.65C389.323 327.067 389.973 327.592 390.456 328.225V326.225H393.331V340H390.456V337.95C389.973 338.6 389.314 339.142 388.481 339.575C387.648 340.008 386.698 340.225 385.631 340.225C384.448 340.225 383.364 339.925 382.381 339.325C381.398 338.708 380.614 337.858 380.031 336.775C379.464 335.675 379.181 334.433 379.181 333.05ZM390.456 333.1C390.456 332.15 390.256 331.325 389.856 330.625C389.473 329.925 388.964 329.392 388.331 329.025C387.698 328.658 387.014 328.475 386.281 328.475C385.548 328.475 384.864 328.658 384.231 329.025C383.598 329.375 383.081 329.9 382.681 330.6C382.298 331.283 382.106 332.1 382.106 333.05C382.106 334 382.298 334.833 382.681 335.55C383.081 336.267 383.598 336.817 384.231 337.2C384.881 337.567 385.564 337.75 386.281 337.75C387.014 337.75 387.698 337.567 388.331 337.2C388.964 336.833 389.473 336.3 389.856 335.6C390.256 334.883 390.456 334.05 390.456 333.1ZM404.024 326C405.108 326 406.074 326.225 406.924 326.675C407.791 327.125 408.466 327.792 408.949 328.675C409.433 329.558 409.674 330.625 409.674 331.875V340H406.849V332.3C406.849 331.067 406.541 330.125 405.924 329.475C405.308 328.808 404.466 328.475 403.399 328.475C402.333 328.475 401.483 328.808 400.849 329.475C400.233 330.125 399.924 331.067 399.924 332.3V340H397.074V326.225H399.924V327.8C400.391 327.233 400.983 326.792 401.699 326.475C402.433 326.158 403.208 326 404.024 326ZM418.31 340.225C417.226 340.225 416.251 340.033 415.385 339.65C414.535 339.25 413.86 338.717 413.36 338.05C412.86 337.367 412.593 336.608 412.56 335.775H415.51C415.56 336.358 415.835 336.85 416.335 337.25C416.851 337.633 417.493 337.825 418.26 337.825C419.06 337.825 419.676 337.675 420.11 337.375C420.56 337.058 420.785 336.658 420.785 336.175C420.785 335.658 420.535 335.275 420.035 335.025C419.551 334.775 418.776 334.5 417.71 334.2C416.676 333.917 415.835 333.642 415.185 333.375C414.535 333.108 413.968 332.7 413.485 332.15C413.018 331.6 412.785 330.875 412.785 329.975C412.785 329.242 413.001 328.575 413.435 327.975C413.868 327.358 414.485 326.875 415.285 326.525C416.101 326.175 417.035 326 418.085 326C419.651 326 420.91 326.4 421.86 327.2C422.826 327.983 423.343 329.058 423.41 330.425H420.56C420.51 329.808 420.26 329.317 419.81 328.95C419.36 328.583 418.751 328.4 417.985 328.4C417.235 328.4 416.66 328.542 416.26 328.825C415.86 329.108 415.66 329.483 415.66 329.95C415.66 330.317 415.793 330.625 416.06 330.875C416.326 331.125 416.651 331.325 417.035 331.475C417.418 331.608 417.985 331.783 418.735 332C419.735 332.267 420.551 332.542 421.185 332.825C421.835 333.092 422.393 333.492 422.86 334.025C423.326 334.558 423.568 335.267 423.585 336.15C423.585 336.933 423.368 337.633 422.935 338.25C422.501 338.867 421.885 339.35 421.085 339.7C420.301 340.05 419.376 340.225 418.31 340.225ZM451.658 326.225L447.383 340H444.383L441.608 329.825L438.833 340H435.833L431.533 326.225H434.433L437.308 337.3L440.233 326.225H443.208L446.008 337.25L448.858 326.225H451.658ZM455.238 324.4C454.721 324.4 454.288 324.225 453.938 323.875C453.588 323.525 453.413 323.092 453.413 322.575C453.413 322.058 453.588 321.625 453.938 321.275C454.288 320.925 454.721 320.75 455.238 320.75C455.738 320.75 456.163 320.925 456.513 321.275C456.863 321.625 457.038 322.058 457.038 322.575C457.038 323.092 456.863 323.525 456.513 323.875C456.163 324.225 455.738 324.4 455.238 324.4ZM456.638 326.225V340H453.788V326.225H456.638ZM463.705 328.55V336.175C463.705 336.692 463.822 337.067 464.055 337.3C464.305 337.517 464.722 337.625 465.305 337.625H467.055V340H464.805C463.522 340 462.538 339.7 461.855 339.1C461.172 338.5 460.83 337.525 460.83 336.175V328.55H459.205V326.225H460.83V322.8H463.705V326.225H467.055V328.55H463.705ZM476.807 326C477.857 326 478.79 326.225 479.607 326.675C480.44 327.125 481.09 327.792 481.557 328.675C482.04 329.558 482.282 330.625 482.282 331.875V340H479.457V332.3C479.457 331.067 479.148 330.125 478.532 329.475C477.915 328.808 477.073 328.475 476.007 328.475C474.94 328.475 474.09 328.808 473.457 329.475C472.84 330.125 472.532 331.067 472.532 332.3V340H469.682V321.5H472.532V327.825C473.015 327.242 473.623 326.792 474.357 326.475C475.107 326.158 475.923 326 476.807 326Z" fill="#363C63"/>
<path d="M510.711 322.625V340H507.861V328.1L502.561 340H500.586L495.261 328.1V340H492.411V322.625H495.486L501.586 336.25L507.661 322.625H510.711ZM520.432 340.225C519.132 340.225 517.957 339.933 516.907 339.35C515.857 338.75 515.032 337.917 514.432 336.85C513.832 335.767 513.532 334.517 513.532 333.1C513.532 331.7 513.84 330.458 514.457 329.375C515.074 328.292 515.915 327.458 516.982 326.875C518.049 326.292 519.24 326 520.557 326C521.874 326 523.065 326.292 524.132 326.875C525.199 327.458 526.04 328.292 526.657 329.375C527.274 330.458 527.582 331.7 527.582 333.1C527.582 334.5 527.265 335.742 526.632 336.825C525.999 337.908 525.132 338.75 524.032 339.35C522.949 339.933 521.749 340.225 520.432 340.225ZM520.432 337.75C521.165 337.75 521.849 337.575 522.482 337.225C523.132 336.875 523.657 336.35 524.057 335.65C524.457 334.95 524.657 334.1 524.657 333.1C524.657 332.1 524.465 331.258 524.082 330.575C523.699 329.875 523.19 329.35 522.557 329C521.924 328.65 521.24 328.475 520.507 328.475C519.774 328.475 519.09 328.65 518.457 329C517.84 329.35 517.349 329.875 516.982 330.575C516.615 331.258 516.432 332.1 516.432 333.1C516.432 334.583 516.807 335.733 517.557 336.55C518.324 337.35 519.282 337.75 520.432 337.75ZM535.849 333.125L542.199 340H538.349L533.249 334.075V340H530.399V321.5H533.249V332.25L538.249 326.225H542.199L535.849 333.125ZM549.242 340.225C548.159 340.225 547.184 340.033 546.317 339.65C545.467 339.25 544.792 338.717 544.292 338.05C543.792 337.367 543.526 336.608 543.492 335.775H546.442C546.492 336.358 546.767 336.85 547.267 337.25C547.784 337.633 548.426 337.825 549.192 337.825C549.992 337.825 550.609 337.675 551.042 337.375C551.492 337.058 551.717 336.658 551.717 336.175C551.717 335.658 551.467 335.275 550.967 335.025C550.484 334.775 549.709 334.5 548.642 334.2C547.609 333.917 546.767 333.642 546.117 333.375C545.467 333.108 544.901 332.7 544.417 332.15C543.951 331.6 543.717 330.875 543.717 329.975C543.717 329.242 543.934 328.575 544.367 327.975C544.801 327.358 545.417 326.875 546.217 326.525C547.034 326.175 547.967 326 549.017 326C550.584 326 551.842 326.4 552.792 327.2C553.759 327.983 554.276 329.058 554.342 330.425H551.492C551.442 329.808 551.192 329.317 550.742 328.95C550.292 328.583 549.684 328.4 548.917 328.4C548.167 328.4 547.592 328.542 547.192 328.825C546.792 329.108 546.592 329.483 546.592 329.95C546.592 330.317 546.726 330.625 546.992 330.875C547.259 331.125 547.584 331.325 547.967 331.475C548.351 331.608 548.917 331.783 549.667 332C550.667 332.267 551.484 332.542 552.117 332.825C552.767 333.092 553.326 333.492 553.792 334.025C554.259 334.558 554.501 335.267 554.517 336.15C554.517 336.933 554.301 337.633 553.867 338.25C553.434 338.867 552.817 339.35 552.017 339.7C551.234 340.05 550.309 340.225 549.242 340.225ZM564.722 326C565.772 326 566.705 326.225 567.522 326.675C568.355 327.125 569.005 327.792 569.472 328.675C569.955 329.558 570.197 330.625 570.197 331.875V340H567.372V332.3C567.372 331.067 567.063 330.125 566.447 329.475C565.83 328.808 564.988 328.475 563.922 328.475C562.855 328.475 562.005 328.808 561.372 329.475C560.755 330.125 560.447 331.067 560.447 332.3V340H557.597V321.5H560.447V327.825C560.93 327.242 561.538 326.792 562.272 326.475C563.022 326.158 563.838 326 564.722 326ZM572.882 333.05C572.882 331.667 573.165 330.442 573.732 329.375C574.315 328.308 575.099 327.483 576.082 326.9C577.082 326.3 578.182 326 579.382 326C580.465 326 581.407 326.217 582.207 326.65C583.024 327.067 583.674 327.592 584.157 328.225V326.225H587.032V340H584.157V337.95C583.674 338.6 583.015 339.142 582.182 339.575C581.349 340.008 580.399 340.225 579.332 340.225C578.149 340.225 577.065 339.925 576.082 339.325C575.099 338.708 574.315 337.858 573.732 336.775C573.165 335.675 572.882 334.433 572.882 333.05ZM584.157 333.1C584.157 332.15 583.957 331.325 583.557 330.625C583.174 329.925 582.665 329.392 582.032 329.025C581.399 328.658 580.715 328.475 579.982 328.475C579.249 328.475 578.565 328.658 577.932 329.025C577.299 329.375 576.782 329.9 576.382 330.6C575.999 331.283 575.807 332.1 575.807 333.05C575.807 334 575.999 334.833 576.382 335.55C576.782 336.267 577.299 336.817 577.932 337.2C578.582 337.567 579.265 337.75 579.982 337.75C580.715 337.75 581.399 337.567 582.032 337.2C582.665 336.833 583.174 336.3 583.557 335.6C583.957 334.883 584.157 334.05 584.157 333.1Z" fill="#8ED7C0"/>
<path d="M33.6874 271C36.7852 276.74 39.1994 287.299 24.0735 283.609C8.94752 279.918 9.65254 289.862 11.8958 295.295C13.9254 301.343 14.5877 312.639 1 309.441" stroke="#26A3A5" stroke-width="8"/>
<path d="M590.313 2C587.215 7.74047 584.801 18.2988 599.927 14.6085C615.052 10.9182 614.347 20.8616 612.104 26.2945C610.075 32.3425 609.412 43.6389 623 40.4407" stroke="#26A3A5" stroke-width="8"/>
</svg>
